<svg width="22" height="28" viewBox="0 0 22 28" fill="none" xmlns="http://www.w3.org/2000/svg">
<path d="M13.4794 14.096L12.651 14.7247L11.5066 14.314L11.1649 14.1914C12.927 14.1668 14.6673 13.6443 16.0111 12.6573C17.3927 11.6424 18.3129 10.1512 18.3165 8.45516V8.45197C18.3165 7.19302 17.8052 6.02345 16.9532 5.08685C16.1082 4.15786 14.9586 3.48552 13.6896 3.09941C12.8856 2.8548 12.0369 2.72557 11.1848 2.71274L11.5066 2.59723L12.6496 2.18708L13.4775 2.81743L13.9323 3.16367L14.5022 3.11947L15.6953 3.02693L16.0803 3.6634L16.4298 4.24112L17.0939 4.36257L18.0399 4.53554L18.0804 4.9631L18.1592 5.79494L18.908 6.16577L19.4383 6.42842L19.352 6.64912L18.9956 7.5604L19.686 8.25381L19.887 8.45563L19.6823 8.66257L18.997 9.35573L19.352 10.2636L19.4383 10.4843L18.908 10.7469L18.1591 11.1178L18.0804 11.9498L18.0397 12.3793L17.0939 12.5523L16.4297 12.6737L16.0803 13.2515L15.6953 13.888L14.5022 13.7954L13.9337 13.7513L13.4794 14.096ZM10.4934 14.314L9.35041 14.7241L8.52248 14.0938L8.06768 13.7475L7.49777 13.7917L6.30469 13.8843L5.91971 13.2478L5.56945 12.6688L4.90354 12.5482L3.95992 12.3773L3.91959 11.9518L3.84078 11.1201L3.09226 10.7492L2.5566 10.4838L2.64299 10.2629L2.99746 9.35677L2.3145 8.66368L2.10812 8.45424L2.31622 8.24397L3.00452 7.54846L2.64535 6.63825L2.5605 6.42322L3.08768 6.16228L3.83675 5.79153L3.91559 4.95945L3.95588 4.53428L4.903 4.36313L5.56928 4.24272L5.91971 3.66339L6.30471 3.02693L7.49781 3.11947L8.06768 3.16367L8.52245 2.81743L9.35039 2.18708L10.4934 2.59723L10.8198 2.71437C10.4451 2.72334 10.071 2.75483 9.70082 2.80891C8.37008 3.00335 7.10359 3.48845 6.07402 4.24473C5.04309 5.002 4.26082 6.02698 3.93433 7.23266C3.60372 8.45357 3.78312 9.71021 4.4041 10.8114C5.01606 11.8967 6.00714 12.7506 7.17588 13.3242C8.28773 13.8699 9.55609 14.1619 10.8388 14.19L10.4934 14.314ZM15.3075 18.1589V24.4171L13.2964 22.8396V19.4479L13.5121 19.5253L14.1603 19.032L15.3075 18.1589ZM8.48674 19.5254L8.70253 19.448V22.8396L6.69152 24.417V18.1584L7.83846 19.0317L8.48674 19.5254ZM9.38379 7.24691C9.81606 7.03475 10.3466 6.90285 10.9135 6.88521L11.0415 6.88541C11.8761 6.88673 12.6155 7.13407 13.1067 7.49459C13.5884 7.84822 13.7196 8.21297 13.7215 8.45489C13.7208 8.64114 13.648 8.88353 13.4078 9.14748C13.1595 9.42046 12.7551 9.68493 12.2059 9.85201C11.6598 10.0182 11.0432 10.0647 10.4457 9.97743C9.84626 9.88984 9.33979 9.67882 8.9778 9.41291C8.61716 9.148 8.45177 8.87064 8.39433 8.65851C8.34101 8.46161 8.35865 8.24866 8.49079 8.01433C8.63195 7.76401 8.91622 7.4764 9.38379 7.24691Z" fill="#427CD4" stroke="#427CD4" stroke-width="3"/>
</svg>
