<svg width="40" height="40" viewBox="0 0 40 40" fill="none" xmlns="http://www.w3.org/2000/svg">
<path d="M37.4767 25.9839C37.9534 25.6149 38.3393 25.1417 38.6048 24.6005C38.8703 24.0592 39.0084 23.4644 39.0084 22.8616C39.0084 22.2587 38.8703 21.6639 38.6048 21.1227C38.3393 20.5815 37.9534 20.1082 37.4767 19.7393C31.3025 14.9635 24.409 11.1984 17.054 8.58462L15.709 8.1068C13.1387 7.19441 10.4221 8.93269 10.0741 11.5875C9.10194 19.0721 9.10194 26.651 10.0741 34.1357C10.4242 36.7905 13.1387 38.5287 15.709 37.6163L17.054 37.1385C24.409 34.5248 31.3025 30.7597 37.4767 25.9839Z" fill="#8A8A8A"/>
</svg>
