<svg width="36" height="35" viewBox="0 0 36 35" fill="none" xmlns="http://www.w3.org/2000/svg">
<g clip-path="url(#clip0_213_4062)">
<path d="M12.5312 20.8053C12.6975 22.8922 14.3469 24.5175 17.3044 24.71V26.25H18.6169V24.6991C21.6794 24.4847 23.4688 22.8484 23.4688 20.4728C23.4688 18.3138 22.0994 17.2003 19.6516 16.6228L18.6169 16.3778V12.1844C19.9294 12.3331 20.765 13.0506 20.9662 14.0438H23.2675C23.1012 12.0334 21.3775 10.4606 18.6169 10.29V8.75H17.3044V10.3228C14.6903 10.5787 12.9075 12.1516 12.9075 14.3763C12.9075 16.345 14.2331 17.5963 16.4359 18.1103L17.3044 18.3247V22.7741C15.9591 22.5706 15.0687 21.8334 14.8675 20.8053H12.5312ZM17.2934 16.0672C16.0028 15.7675 15.3028 15.1572 15.3028 14.2384C15.3028 13.2103 16.0575 12.4403 17.3044 12.215V16.065L17.2934 16.0672ZM18.8072 18.6769C20.3756 19.04 21.0997 19.6284 21.0997 20.6675C21.0997 21.8531 20.1984 22.6669 18.6169 22.8156V18.6331L18.8072 18.6769Z" fill="#BF8115"/>
<path d="M18 32.8125C13.9389 32.8125 10.0441 31.1992 7.17243 28.3276C4.30078 25.4559 2.6875 21.5611 2.6875 17.5C2.6875 13.4389 4.30078 9.54408 7.17243 6.67243C10.0441 3.80078 13.9389 2.1875 18 2.1875C22.0611 2.1875 25.9559 3.80078 28.8276 6.67243C31.6992 9.54408 33.3125 13.4389 33.3125 17.5C33.3125 21.5611 31.6992 25.4559 28.8276 28.3276C25.9559 31.1992 22.0611 32.8125 18 32.8125ZM18 35C22.6413 35 27.0925 33.1563 30.3744 29.8744C33.6563 26.5925 35.5 22.1413 35.5 17.5C35.5 12.8587 33.6563 8.40752 30.3744 5.12563C27.0925 1.84374 22.6413 0 18 0C13.3587 0 8.90752 1.84374 5.62563 5.12563C2.34374 8.40752 0.5 12.8587 0.5 17.5C0.5 22.1413 2.34374 26.5925 5.62563 29.8744C8.90752 33.1563 13.3587 35 18 35Z" fill="#BF8115"/>
<path d="M18 29.5312C14.8091 29.5312 11.7489 28.2637 9.49262 26.0074C7.23632 23.7511 5.96875 20.6909 5.96875 17.5C5.96875 14.3091 7.23632 11.2489 9.49262 8.99262C11.7489 6.73632 14.8091 5.46875 18 5.46875C21.1909 5.46875 24.2511 6.73632 26.5074 8.99262C28.7637 11.2489 30.0312 14.3091 30.0312 17.5C30.0312 20.6909 28.7637 23.7511 26.5074 26.0074C24.2511 28.2637 21.1909 29.5312 18 29.5312ZM18 30.625C19.7236 30.625 21.4303 30.2855 23.0227 29.6259C24.6151 28.9663 26.062 27.9995 27.2808 26.7808C28.4995 25.562 29.4663 24.1151 30.1259 22.5227C30.7855 20.9303 31.125 19.2236 31.125 17.5C31.125 15.7764 30.7855 14.0697 30.1259 12.4773C29.4663 10.8849 28.4995 9.43799 27.2808 8.21922C26.062 7.00045 24.6151 6.03367 23.0227 5.37408C21.4303 4.71449 19.7236 4.375 18 4.375C14.519 4.375 11.1806 5.75781 8.71922 8.21922C6.25781 10.6806 4.875 14.019 4.875 17.5C4.875 20.981 6.25781 24.3194 8.71922 26.7808C11.1806 29.2422 14.519 30.625 18 30.625Z" fill="#BF8115"/>
</g>
<defs>
<clipPath id="clip0_213_4062">
<rect width="35" height="35" fill="white" transform="translate(0.5)"/>
</clipPath>
</defs>
</svg>
