<svg width="36" height="35" viewBox="0 0 36 35" fill="none" xmlns="http://www.w3.org/2000/svg">
<g clip-path="url(#clip0_213_4046)">
<path d="M18 1.94446C14.9234 1.94446 11.9159 2.85678 9.35782 4.56604C6.79972 6.27531 4.80592 8.70475 3.62856 11.5472C2.4512 14.3896 2.14315 17.5173 2.74336 20.5348C3.34358 23.5522 4.8251 26.324 7.00058 28.4995C9.17607 30.6749 11.9478 32.1565 14.9653 32.7567C17.9828 33.3569 21.1105 33.0488 23.9529 31.8715C26.7953 30.6941 29.2247 28.7003 30.934 26.1422C32.6433 23.5841 33.5556 20.5766 33.5556 17.5C33.5556 13.3744 31.9167 9.41781 28.9995 6.50058C26.0822 3.58334 22.1256 1.94446 18 1.94446ZM24.0278 22.5361C23.9572 22.643 23.8661 22.7349 23.7599 22.8064C23.6536 22.878 23.5343 22.9279 23.4087 22.9532C23.2831 22.9785 23.1538 22.9787 23.0281 22.9538C22.9024 22.929 22.7829 22.8795 22.6764 22.8083L16.9403 18.9195V10.4514C16.9403 10.1936 17.0427 9.94626 17.2251 9.76394C17.4074 9.58161 17.6547 9.47918 17.9125 9.47918C18.1704 9.47918 18.4177 9.58161 18.6 9.76394C18.7823 9.94626 18.8847 10.1936 18.8847 10.4514V17.8889L23.7459 21.1847C23.8535 21.2546 23.9463 21.3451 24.0188 21.451C24.0913 21.5569 24.1421 21.6761 24.1683 21.8017C24.1945 21.9273 24.1956 22.0569 24.1715 22.183C24.1474 22.309 24.0985 22.429 24.0278 22.5361ZM23.6875 8.0014C22.3196 7.17687 20.7894 6.65803 19.2021 6.48047C17.6148 6.30291 16.0078 6.47083 14.4915 6.97272C12.9752 7.47461 11.5853 8.29858 10.4174 9.3881C9.24946 10.4776 8.33103 11.8069 7.72514 13.2848C7.11924 14.7626 6.84021 16.354 6.9072 17.9499C6.97419 19.5457 7.3856 21.1081 8.11322 22.53C8.84083 23.9519 9.86743 25.1995 11.1226 26.1873C12.3777 27.1751 13.8317 27.8797 15.3847 28.2528L15.0834 29.7792C13.3022 29.3646 11.6322 28.5684 10.1887 27.4456C8.74518 26.3228 7.56253 24.9001 6.72237 23.2758C5.88221 21.6514 5.40457 19.8641 5.32241 18.0371C5.24025 16.2102 5.55554 14.3872 6.2465 12.694C6.93746 11.0008 7.98765 9.47768 9.32455 8.22984C10.6614 6.982 12.2532 6.03914 13.99 5.46636C15.7267 4.89358 17.5671 4.70452 19.3841 4.91224C21.201 5.11995 22.9512 5.71949 24.5139 6.66946L23.6875 8.0014Z" fill="#2C538E"/>
</g>
<defs>
<clipPath id="clip0_213_4046">
<rect width="35" height="35" fill="white" transform="translate(0.5)"/>
</clipPath>
</defs>
</svg>
