<svg width="55" height="57" viewBox="0 0 55 57" fill="none" xmlns="http://www.w3.org/2000/svg">
<path d="M27.5 0C32.0584 0 36.4301 1.50133 39.6534 4.17373C42.8767 6.84612 44.6875 10.4707 44.6875 14.25V22.8C47.4225 22.8 50.0456 23.7008 51.9795 25.3042C53.9135 26.9077 55 29.0824 55 31.35V48.45C55 50.7176 53.9135 52.8923 51.9795 54.4958C50.0456 56.0992 47.4225 57 44.6875 57H10.3125C7.57746 57 4.95443 56.0992 3.02046 54.4958C1.08649 52.8923 0 50.7176 0 48.45V31.35C0 29.0824 1.08649 26.9077 3.02046 25.3042C4.95443 23.7008 7.57746 22.8 10.3125 22.8V14.25C10.3125 10.4707 12.1233 6.84612 15.3466 4.17373C18.5699 1.50133 22.9416 0 27.5 0ZM27.5 34.2C25.7655 34.1995 24.0949 34.7427 22.8231 35.7205C21.5513 36.6983 20.7723 38.0385 20.6422 39.4725L20.625 39.9C20.625 41.0274 21.0282 42.1294 21.7836 43.0668C22.5391 44.0041 23.6128 44.7347 24.8691 45.1661C26.1253 45.5975 27.5076 45.7104 28.8412 45.4905C30.1749 45.2705 31.3999 44.7277 32.3614 43.9305C33.3228 43.1334 33.9776 42.1177 34.2429 41.012C34.5082 39.9063 34.372 38.7602 33.8517 37.7187C33.3313 36.6772 32.4501 35.7869 31.3195 35.1606C30.189 34.5343 28.8597 34.2 27.5 34.2ZM27.5 5.7C24.765 5.7 22.1419 6.6008 20.208 8.20424C18.274 9.80767 17.1875 11.9824 17.1875 14.25V22.8H37.8125V14.25C37.8125 11.9824 36.726 9.80767 34.792 8.20424C32.8581 6.6008 30.235 5.7 27.5 5.7Z" fill="#B8B8B8"/>
</svg>
