<svg width="21" height="23" viewBox="0 0 21 23" fill="none" xmlns="http://www.w3.org/2000/svg">
<path fill-rule="evenodd" clip-rule="evenodd" d="M18.2522 1.22694C17.9947 1.07573 17.7077 0.981628 17.4106 0.951028C17.1136 0.920426 16.8135 0.954038 16.5306 1.04958C16.2476 1.14513 15.9886 1.30037 15.7709 1.5048C15.5532 1.70923 15.3821 1.95806 15.269 2.23442C13.7413 1.85393 12.1316 1.97807 10.6803 2.58829C9.22909 3.19852 8.01433 4.26205 7.21762 5.61989L2.99854 12.8062L2.10024 12.2789C1.862 12.139 1.57795 12.0995 1.31058 12.169C1.04322 12.2386 0.814432 12.4115 0.67456 12.6498C0.534689 12.888 0.495187 13.1721 0.564745 13.4394C0.634305 13.7068 0.807226 13.9356 1.04547 14.0755L15.4182 22.5136C15.6564 22.6535 15.9405 22.693 16.2078 22.6234C16.4752 22.5539 16.704 22.381 16.8439 22.1427C16.9837 21.9045 17.0232 21.6204 16.9537 21.3531C16.8841 21.0857 16.7112 20.8569 16.473 20.717L15.5747 20.1897L19.7937 13.0033C20.5912 11.6459 20.9279 10.0668 20.7535 8.5022C20.5791 6.93757 19.903 5.4714 18.8262 4.32287C18.8874 4.24606 18.9434 4.16454 18.994 4.07831C19.2737 3.60182 19.3527 3.03372 19.2136 2.49899C19.0745 1.96426 18.7286 1.50669 18.2522 1.22694ZM8.97364 21.1459C8.83377 21.3841 8.60499 21.5571 8.33762 21.6266C8.07025 21.6962 7.7862 21.6567 7.54796 21.5168L5.75137 20.462C5.51313 20.3222 5.34021 20.0934 5.27065 19.826C5.20109 19.5587 5.24059 19.2746 5.38046 19.0364C5.52034 18.7981 5.74912 18.6252 6.01649 18.5556C6.28385 18.4861 6.5679 18.5256 6.80614 18.6654L8.60273 19.7202C8.84098 19.8601 9.0139 20.0889 9.08346 20.3562C9.15302 20.6236 9.11351 20.9077 8.97364 21.1459Z" fill="#EC4949"/>
</svg>
