<svg width="244" height="163" viewBox="0 0 244 163" fill="none" xmlns="http://www.w3.org/2000/svg">
<path d="M243.341 152.426C243.341 152.488 188.863 152.542 121.675 152.542C54.4879 152.542 0 152.488 0 152.426C0 152.363 54.4672 152.31 121.675 152.31C188.884 152.31 243.341 152.363 243.341 152.426Z" fill="#263238"/>
<path d="M98.6527 21.7841L94.8035 22.3827C92.8667 24.2708 90.1833 25.4642 87.2806 25.7284C84.3779 25.9926 81.4659 25.3085 79.1169 23.8106C76.7679 22.3126 75.1517 20.1091 74.586 17.6332C74.0204 15.1572 74.5461 12.5879 76.0599 10.4301C77.5737 8.27225 79.9662 6.68204 82.767 5.97197C85.5678 5.2619 88.5745 5.48332 91.1961 6.59271C93.8177 7.7021 95.8647 9.61922 96.9347 11.9673C98.0047 14.3154 98.0204 16.9246 96.9787 19.2822L98.6527 21.7841Z" fill="white"/>
<path d="M98.6527 21.784C98.6527 21.784 98.6217 21.7304 98.5494 21.6232C98.4771 21.516 98.3737 21.3507 98.2342 21.1452C97.9501 20.6984 97.5367 20.0774 96.9942 19.2598H96.958H97.0097C97.7065 17.6964 97.9461 16.0083 97.7072 14.3455C97.6304 13.824 97.506 13.3087 97.3352 12.8042C97.2474 12.5406 97.1285 12.2814 97.02 12.0134C96.913 11.7414 96.7818 11.477 96.6274 11.2226C96.0096 10.0979 95.1545 9.08278 94.106 8.22933C92.8907 7.25067 91.4504 6.50452 89.8791 6.03957C88.3078 5.57461 86.6408 5.40129 84.9868 5.5309C83.1534 5.68459 81.3855 6.20129 79.8201 7.04095C79.4163 7.25325 79.0296 7.48909 78.6628 7.74683C78.4824 7.87437 78.3099 8.01007 78.1461 8.15338C77.9705 8.29634 77.7845 8.4259 77.6295 8.60014C77.2958 8.90074 76.9835 9.21852 76.6943 9.55174L76.2655 10.061C76.1415 10.2442 76.0175 10.4274 75.8883 10.6061C74.9788 11.9781 74.4515 13.5145 74.3484 15.0934C74.2452 16.6723 74.5691 18.2503 75.2941 19.7021C76.2321 21.5588 77.7902 23.1309 79.7685 24.2166C81.7468 25.3024 84.0551 25.8523 86.3973 25.796C87.0442 25.7774 87.6885 25.7162 88.3245 25.6128C88.916 25.5018 89.4991 25.3601 90.0709 25.1884C91.8949 24.61 93.522 23.6453 94.8035 22.3827L97.6866 21.9359L98.4151 21.8198L98.6579 21.7751L98.3996 21.8109L97.6607 21.9181L94.7932 22.3648C93.5069 23.6134 91.88 24.564 90.0605 25.1303C89.4927 25.2958 88.9149 25.4345 88.3297 25.5458C87.6985 25.6456 87.0594 25.7039 86.418 25.72C84.1006 25.7691 81.8188 25.2204 79.8635 24.1439C77.9081 23.0674 76.3678 21.5117 75.4388 19.6753C74.7166 18.2365 74.3933 16.6716 74.4946 15.1055C74.596 13.5394 75.1193 12.0154 76.0226 10.6552L76.3946 10.1191C76.529 9.94489 76.6788 9.77959 76.8183 9.61429C77.1041 9.28406 77.4129 8.96925 77.7431 8.67162C77.8981 8.51526 78.0841 8.39016 78.2598 8.22486C78.4236 8.08292 78.596 7.9487 78.7765 7.82278C79.1394 7.56949 79.5208 7.33669 79.9183 7.12584C81.4618 6.29673 83.2046 5.78473 85.0127 5.62918C87.368 5.44987 89.7308 5.89393 91.7876 6.90247C93.8444 7.911 95.498 9.43636 96.5292 11.2762C96.6805 11.5304 96.8117 11.7931 96.9219 12.0625C97.0252 12.3261 97.1492 12.5852 97.2371 12.8444C97.4077 13.3443 97.5321 13.8553 97.609 14.3723C97.8511 16.0226 97.6223 17.6991 96.9425 19.2554C96.9378 19.2596 96.9352 19.2652 96.9352 19.271C96.9352 19.2769 96.9378 19.2825 96.9425 19.2867H96.9735H96.9322L98.1929 21.1362C98.3324 21.3462 98.4461 21.5071 98.5236 21.6187C98.6011 21.7304 98.6527 21.784 98.6527 21.784Z" fill="#263238"/>
<path d="M85.86 18.5004C84.9407 18.4984 84.0517 18.2156 83.35 17.7021C82.6482 17.1885 82.1788 16.4772 82.0245 15.6935C81.8702 14.9098 82.041 14.1042 82.5066 13.4188C82.9723 12.7334 83.703 12.2122 84.5697 11.9472C85.4365 11.6823 86.3836 11.6905 87.244 11.9705C88.1045 12.2505 88.8229 12.7843 89.2725 13.4777C89.7221 14.171 89.8741 14.9794 89.7016 15.7603C89.5291 16.5411 89.0432 17.2441 88.3297 17.7454C87.6311 18.2347 86.7591 18.5013 85.86 18.5004ZM85.86 12.63C85.2894 12.6291 84.7313 12.7747 84.2564 13.0482C83.7815 13.3218 83.4111 13.7111 83.1923 14.1668C82.9734 14.6225 82.9159 15.1241 83.027 15.6081C83.1381 16.0921 83.4127 16.5367 83.8162 16.8857C84.2198 17.2346 84.7339 17.4721 85.2937 17.5681C85.8534 17.6642 86.4335 17.6144 86.9605 17.4252C87.4875 17.236 87.9377 16.9157 88.2541 16.5051C88.5705 16.0945 88.7389 15.6119 88.7378 15.1184C88.7365 14.4588 88.4328 13.8265 87.8934 13.3601C87.354 12.8937 86.6228 12.6312 85.86 12.63Z" fill="#263238"/>
<path d="M90.4997 19.586C90.3641 19.5855 90.2342 19.539 90.138 19.4564L87.8698 17.5443C87.8152 17.5049 87.7706 17.4561 87.7387 17.4011C87.7069 17.3461 87.6886 17.286 87.6848 17.2245C87.6811 17.1631 87.6921 17.1016 87.7172 17.0441C87.7422 16.9865 87.7807 16.934 87.8303 16.8898C87.8799 16.8457 87.9395 16.8109 88.0054 16.7877C88.0712 16.7644 88.142 16.7532 88.2131 16.7546C88.2842 16.7561 88.3542 16.7702 88.4188 16.7962C88.4833 16.8221 88.5409 16.8593 88.588 16.9054L90.8613 18.8176C90.9357 18.8795 90.9869 18.9593 91.0083 19.0467C91.0296 19.134 91.0203 19.2249 90.9813 19.3076C90.9424 19.3903 90.8757 19.4611 90.7899 19.5107C90.704 19.5603 90.6029 19.5865 90.4997 19.586Z" fill="#263238"/>
<path d="M106.227 12.554C105.645 12.2512 105.168 11.8184 104.846 11.3011C104.524 10.7838 104.369 10.2011 104.398 9.61416C104.426 9.02725 104.637 8.45783 105.008 7.96572C105.379 7.47362 105.897 7.077 106.506 6.81755L111.156 6.05359C111.039 11.0067 110.956 15.9613 110.908 20.9173C109.706 20.7897 108.567 20.3786 107.617 19.7289C106.728 19.0365 106.248 17.8704 106.764 16.9456C106.301 16.7549 105.903 16.4643 105.607 16.1017C105.312 15.7391 105.129 15.3168 105.077 14.8755C105.025 14.4342 105.106 13.9887 105.311 13.5821C105.516 13.1755 105.839 12.8214 106.248 12.554H106.227Z" fill="#263238"/>
<path d="M127.938 12.6165L127.287 10.3827L116.101 8.26509C112.391 7.81833 108.258 10.8965 107.906 14.073C107.514 17.5935 107.204 21.9002 107.596 24.5451C108.392 29.857 113.135 30.6567 113.135 30.6567L112.753 35.8794C112.598 38.9307 115.599 39.6813 119.185 39.8153C122.693 39.9449 125.23 37.5458 125.499 34.5704L127.938 12.6165Z" fill="#FFBF9D"/>
<path d="M109.394 18.3842C109.387 18.5626 109.461 18.7362 109.6 18.8681C109.739 19 109.932 19.0797 110.138 19.0901C110.238 19.1 110.34 19.0925 110.437 19.0681C110.534 19.0437 110.624 19.0029 110.702 18.948C110.781 18.8931 110.846 18.8252 110.894 18.7483C110.941 18.6715 110.971 18.5872 110.98 18.5004C110.988 18.322 110.914 18.1483 110.775 18.0164C110.636 17.8845 110.442 17.8049 110.236 17.7945C110.136 17.784 110.034 17.791 109.937 17.8151C109.84 17.8393 109.749 17.8801 109.671 17.9351C109.592 17.9901 109.527 18.0582 109.48 18.1354C109.432 18.2125 109.403 18.2971 109.394 18.3842Z" fill="#263238"/>
<path d="M109.141 16.3246C109.234 16.414 109.854 16.0521 110.691 16.0744C111.528 16.0968 112.164 16.481 112.241 16.3961C112.319 16.3112 112.195 16.1951 111.926 16.0164C111.56 15.7872 111.122 15.6609 110.67 15.6545C110.225 15.6398 109.785 15.7477 109.415 15.9628C109.188 16.1281 109.089 16.2844 109.141 16.3246Z" fill="#263238"/>
<path d="M117.392 18.6344C117.385 18.8123 117.459 18.9855 117.598 19.1167C117.738 19.2479 117.931 19.3265 118.136 19.3358C118.237 19.3463 118.338 19.3393 118.436 19.3151C118.533 19.291 118.623 19.2502 118.702 19.1952C118.78 19.1402 118.845 19.0721 118.893 18.9949C118.94 18.9178 118.97 18.8332 118.979 18.7461C118.986 18.5689 118.912 18.3964 118.774 18.2653C118.636 18.1343 118.444 18.0551 118.24 18.0447C118.139 18.0341 118.037 18.0411 117.94 18.0652C117.842 18.0894 117.751 18.1301 117.672 18.1851C117.593 18.24 117.528 18.3081 117.48 18.3853C117.432 18.4624 117.402 18.5471 117.392 18.6344Z" fill="#263238"/>
<path d="M117.573 16.682C117.666 16.7758 118.286 16.4095 119.123 16.4363C119.96 16.4631 120.596 16.8428 120.673 16.7535C120.751 16.6641 120.627 16.5525 120.358 16.3782C119.993 16.1475 119.555 16.0196 119.103 16.0119C118.657 15.9972 118.217 16.1051 117.847 16.3201C117.62 16.4854 117.537 16.6418 117.573 16.682Z" fill="#263238"/>
<path d="M114.256 22.0119C113.808 21.8816 113.343 21.7977 112.871 21.7617C112.654 21.7394 112.448 21.6947 112.417 21.5696C112.405 21.3761 112.463 21.1841 112.582 21.0201L113.28 19.6173C114.256 17.6202 114.969 15.9762 114.871 15.9449C114.773 15.9136 113.91 17.5041 112.939 19.519C112.701 20.0104 112.479 20.4795 112.267 20.9307C112.12 21.1507 112.068 21.4091 112.122 21.659C112.153 21.7255 112.201 21.7852 112.261 21.8339C112.322 21.8826 112.395 21.919 112.474 21.9404C112.595 21.9713 112.72 21.9893 112.846 21.994C113.313 22.0541 113.787 22.0601 114.256 22.0119Z" fill="#263238"/>
<path d="M113.14 30.6389C116.131 30.758 119.104 30.1794 121.748 28.9635C121.748 28.9635 119.454 32.6895 113.032 32.0372L113.14 30.6389Z" fill="#FFAC1C"/>
<path d="M114.556 23.7811C114.727 23.61 114.946 23.4794 115.192 23.4012C115.438 23.3231 115.702 23.3001 115.961 23.3343C116.337 23.3672 116.683 23.5279 116.922 23.7811C117.037 23.9076 117.102 24.0622 117.108 24.2227C117.115 24.3833 117.062 24.5415 116.958 24.6746C116.815 24.8041 116.63 24.8934 116.427 24.9309C116.225 24.9683 116.014 24.9522 115.822 24.8846C115.422 24.7529 115.057 24.554 114.747 24.2993C114.651 24.2396 114.57 24.1636 114.509 24.0759C114.478 24.0358 114.461 23.9883 114.461 23.9397C114.461 23.891 114.478 23.8435 114.509 23.8034" fill="#FFAC1C"/>
<path d="M116.767 22.5838C116.628 22.5838 116.597 23.3656 115.78 23.9241C114.964 24.4825 113.972 24.3708 113.962 24.4646C113.951 24.5585 114.173 24.6255 114.597 24.6433C115.141 24.667 115.676 24.5247 116.111 24.2413C116.526 23.9721 116.803 23.5726 116.881 23.1288C116.927 22.7803 116.829 22.5838 116.767 22.5838Z" fill="#263238"/>
<path d="M117.589 14.1846C117.687 14.3723 118.384 14.2114 119.232 14.2293C120.079 14.2472 120.782 14.417 120.875 14.2293C120.916 14.14 120.771 13.9657 120.477 13.7826C120.096 13.5839 119.661 13.4775 119.216 13.4743C118.78 13.4625 118.348 13.5569 117.971 13.7468C117.682 13.921 117.537 14.0908 117.589 14.1846Z" fill="#263238"/>
<path d="M109.27 13.8228C109.415 13.9926 110.014 13.8228 110.727 13.8228C111.44 13.8228 112.034 13.9702 112.179 13.8228C112.241 13.7424 112.179 13.5726 111.895 13.4073C111.548 13.209 111.141 13.1033 110.725 13.1033C110.309 13.1033 109.902 13.209 109.554 13.4073C109.27 13.5726 109.193 13.7379 109.27 13.8228Z" fill="#263238"/>
<path d="M105.199 9.21219C104.585 8.81333 104.123 8.26547 103.871 7.63847C103.619 7.01147 103.588 6.33375 103.783 5.69172C104.004 5.05184 104.411 4.47207 104.967 4.00867C105.523 3.54527 106.208 3.21396 106.956 3.0469C107.261 2.98208 107.572 2.9417 107.886 2.92627C108.498 2.63345 109.186 2.47973 109.885 2.47951C109.982 2.13283 110.192 1.81766 110.491 1.57195C110.79 1.32623 111.164 1.16045 111.569 1.09455C112.389 0.973872 113.231 1.02442 114.024 1.24198C114.454 0.816407 114.994 0.483526 115.599 0.269787C116.205 0.056048 116.859 -0.0326575 117.511 0.0107125C118.163 0.0540826 118.795 0.228335 119.355 0.519627C119.916 0.81092 120.39 1.21123 120.74 1.68874C121.208 1.47421 121.725 1.35355 122.253 1.33576C122.782 1.31797 123.309 1.4035 123.794 1.58599C124.271 1.77561 124.691 2.05759 125.021 2.41009C125.352 2.76259 125.584 3.17615 125.7 3.61875C126.161 3.6431 126.61 3.7479 127.022 3.92682C127.434 4.10574 127.8 4.35506 128.098 4.6597C128.317 4.88649 128.492 5.14312 128.614 5.41919C128.894 5.74031 129.088 6.11108 129.183 6.50483C129.949 6.60731 130.664 6.90388 131.236 7.35709C131.808 7.81031 132.212 8.39986 132.396 9.05136C132.544 9.70603 132.461 10.384 132.158 10.9974C131.855 11.6108 131.346 12.1313 130.697 12.4914C131.07 12.826 131.347 13.2312 131.508 13.6747C131.668 14.1183 131.707 14.5881 131.621 15.0469C131.524 15.5059 131.305 15.9394 130.983 16.3136C130.66 16.6879 130.242 16.9928 129.761 17.2047C129.927 17.7017 129.972 18.223 129.894 18.7358C129.816 19.2486 129.616 19.7418 129.307 20.1846C129.056 20.5819 128.646 20.8867 128.155 21.0424C128.131 21.1141 128.095 21.182 128.046 21.2435C127.648 21.7438 126.713 21.4981 126.176 21.105C124.858 20.1578 124.186 18.7103 123.856 17.2718C123.525 15.8332 123.484 14.3544 123.169 12.9114C123.169 12.8801 123.169 12.8488 123.169 12.8131C123.035 12.2133 122.742 11.6487 122.311 11.1645C121.818 11.4611 121.3 11.7254 120.761 11.9553C119.758 12.3195 118.648 12.4008 117.588 12.1874C116.529 11.974 115.574 11.4769 114.861 10.7669C113.487 11.6751 111.794 12.1482 110.066 12.1072C108.351 12.0625 106.661 11.7453 105.375 10.7669C105.039 10.5205 104.792 10.1966 104.662 9.83319C104.574 9.60534 104.884 9.28368 105.199 9.21219Z" fill="#263238"/>
<path d="M126.723 19.099C126.811 19.0633 130.102 18.2055 130.159 21.0916C130.216 23.9777 126.77 23.4416 126.765 23.3567C126.76 23.2718 126.723 19.099 126.723 19.099Z" fill="#FFBF9D"/>
<path d="M127.788 22.2442C127.788 22.2442 127.844 22.2799 127.948 22.3157C128.091 22.3636 128.249 22.3636 128.392 22.3157C128.61 22.1948 128.786 22.0259 128.902 21.8263C129.018 21.6267 129.071 21.4039 129.053 21.1809C129.058 20.9323 128.996 20.6862 128.873 20.4616C128.838 20.3706 128.779 20.2882 128.7 20.2213C128.621 20.1544 128.524 20.105 128.418 20.0774C128.35 20.0633 128.279 20.0699 128.216 20.0959C128.153 20.1219 128.102 20.1658 128.072 20.2204C128.025 20.3052 128.072 20.3589 128.03 20.3678C127.989 20.3767 127.958 20.3186 127.984 20.198C128.001 20.1258 128.047 20.0611 128.113 20.0148C128.206 19.9532 128.322 19.9245 128.439 19.9344C128.579 19.9559 128.711 20.0082 128.821 20.0865C128.932 20.1647 129.017 20.2662 129.069 20.3812C129.22 20.6305 129.296 20.9085 129.291 21.1898C129.312 21.4496 129.242 21.7089 129.091 21.9342C128.94 22.1595 128.715 22.3406 128.444 22.4542C128.353 22.4784 128.257 22.4845 128.163 22.4721C128.069 22.4598 127.98 22.4292 127.901 22.3827C127.793 22.3157 127.772 22.2486 127.788 22.2442Z" fill="#FFAC1C"/>
<path d="M128.578 23.2763C128.625 23.4475 128.648 23.623 128.645 23.799C128.631 23.9827 128.543 24.1564 128.397 24.2904C128.306 24.367 128.194 24.4223 128.071 24.4513C127.948 24.4802 127.818 24.4817 127.695 24.4557C127.576 24.4224 127.473 24.3589 127.397 24.2736C127.321 24.1882 127.277 24.0851 127.271 23.9777C127.251 23.7929 127.292 23.6069 127.39 23.4416C127.496 23.2882 127.592 23.1301 127.679 22.968C127.515 23.0918 127.383 23.244 127.292 23.4148C127.171 23.5932 127.114 23.7982 127.126 24.0045C127.139 24.1302 127.187 24.2513 127.266 24.3574C127.359 24.474 127.496 24.5592 127.653 24.5987C127.803 24.6292 127.959 24.6259 128.106 24.5891C128.254 24.5523 128.388 24.4833 128.496 24.3887C128.663 24.2339 128.756 24.0291 128.754 23.8169C128.774 23.6242 128.711 23.4318 128.578 23.2763Z" fill="#263238"/>
<path d="M113.404 18.1877C113.404 18.1877 113.404 17.9196 113.243 17.4595C113.038 16.815 112.589 16.2488 111.967 15.8511C111.513 15.5603 110.983 15.3716 110.424 15.3022C109.865 15.2328 109.294 15.2848 108.764 15.4535C108.141 15.6511 107.601 16.006 107.214 16.4721C106.788 16.9682 106.558 17.5697 106.558 18.1877C106.558 18.8056 106.788 19.4072 107.214 19.9033C107.6 20.3706 108.14 20.7258 108.764 20.9219C109.294 21.0906 109.865 21.1426 110.424 21.0732C110.983 21.0038 111.513 20.8151 111.967 20.5242C112.589 20.1266 113.038 19.5603 113.243 18.9159C113.388 18.4692 113.378 18.1877 113.404 18.1877C113.417 18.2512 113.417 18.3163 113.404 18.3798C113.406 18.5678 113.382 18.7554 113.331 18.9382C113.153 19.6189 112.707 20.2251 112.071 20.6538C111.691 20.9051 111.257 21.0887 110.794 21.194C110.332 21.2993 109.849 21.3243 109.376 21.2673C108.902 21.2104 108.446 21.0728 108.034 20.8624C107.622 20.652 107.263 20.3731 106.976 20.0417C106.519 19.5045 106.272 18.8548 106.272 18.1877C106.272 17.5206 106.519 16.8709 106.976 16.3336C107.26 15.9998 107.619 15.7185 108.031 15.5064C108.443 15.2943 108.899 15.1557 109.374 15.0986C109.849 15.0416 110.332 15.0673 110.795 15.1743C111.258 15.2813 111.692 15.4674 112.071 15.7216C112.709 16.1512 113.154 16.7592 113.331 17.4416C113.382 17.6229 113.406 17.809 113.404 17.9956C113.417 18.0591 113.417 18.1242 113.404 18.1877Z" fill="#455A64"/>
<path d="M121.944 18.1876C121.913 18.1876 121.944 17.9196 121.784 17.4594C121.574 16.8167 121.126 16.2516 120.508 15.8511C120.054 15.5602 119.524 15.3716 118.964 15.3022C118.405 15.2327 117.835 15.2847 117.304 15.4535C116.811 15.6076 116.367 15.8594 116.007 16.1887C115.646 16.5181 115.38 16.9158 115.229 17.35C115.079 17.7843 115.048 18.243 115.139 18.6894C115.23 19.1359 115.441 19.5577 115.754 19.9211C116.14 20.3888 116.68 20.7441 117.304 20.9397C117.835 21.1084 118.405 21.1604 118.964 21.091C119.524 21.0216 120.054 20.8329 120.508 20.5421C121.126 20.1416 121.574 19.5764 121.784 18.9337C121.924 18.487 121.913 18.2055 121.944 18.2055C121.951 18.2694 121.951 18.3337 121.944 18.3976C121.945 18.5858 121.919 18.7733 121.867 18.9561C121.69 19.6374 121.244 20.2442 120.606 20.6716C120.226 20.9222 119.793 21.1053 119.331 21.2102C118.869 21.3151 118.387 21.3398 117.914 21.2829C117.441 21.226 116.985 21.0886 116.574 20.8786C116.162 20.6686 115.803 20.3903 115.517 20.0596C115.059 19.5223 114.813 18.8726 114.813 18.2055C114.813 17.5384 115.059 16.8887 115.517 16.3515C115.939 15.8524 116.526 15.4755 117.201 15.2703C117.809 15.0831 118.464 15.0399 119.097 15.1452C119.648 15.237 120.165 15.4407 120.606 15.7394C121.246 16.1677 121.692 16.7763 121.867 17.4594C121.919 17.6406 121.945 17.8267 121.944 18.0134C121.95 18.0714 121.95 18.1297 121.944 18.1876Z" fill="#455A64"/>
<path d="M115.021 17.513C114.974 17.5667 114.618 17.3924 114.137 17.4148C113.657 17.4371 113.316 17.6247 113.264 17.5756C113.212 17.5265 113.538 17.1958 114.127 17.1824C114.716 17.169 115.078 17.4684 115.021 17.513Z" fill="#455A64"/>
<path d="M126.785 19.0499C125.929 18.9604 125.086 18.7942 124.269 18.554C123.428 18.3894 122.608 18.1483 121.825 17.8347C123.523 18.0899 125.185 18.4971 126.785 19.0499Z" fill="#455A64"/>
<path d="M136.788 41.0573C136.788 40.9947 133.115 34.749 133.115 34.749C136.731 35.0796 139.924 36.1742 142.017 38.5465C142.943 39.6472 143.697 40.849 144.259 42.1206C145.716 45.2479 148.315 52.4899 148.315 52.4899L137.858 57.2032L136.788 41.0573Z" fill="#FFAC1C"/>
<path d="M102.931 35.7856L112.939 32.8861C114.287 34.9635 115.971 36.6657 118.978 36.6433C122.171 36.6433 124.29 35.0797 125.845 32.8861L127.328 33.2077L136.69 35.3701L137.873 50.5599L136.323 64.4095L140.735 77.9419C127.793 79.2464 112.319 81.3462 99.2572 79.93L104.842 66.0804L102.626 51.3954L101.246 36.2859L102.931 35.7856Z" fill="#FFAC1C"/>
<path d="M102.037 36.0357C100.489 36.4599 99.0988 37.2306 98.0069 38.2695C95.828 40.4824 93.9537 42.9067 92.4217 45.4937C88.7121 51.4713 87.8079 53.3969 87.8079 53.3969L99.0609 58.8205L103.194 51.1005L102.037 36.0357Z" fill="#FFAC1C"/>
<path d="M136.323 48.0401C136.433 48.1882 136.521 48.3472 136.587 48.5137C136.797 48.9512 136.978 49.3987 137.129 49.854C137.638 51.3803 137.898 52.9608 137.899 54.5494C137.91 56.126 137.665 57.6962 137.17 59.2136C137.027 59.6684 136.855 60.1158 136.654 60.5539C136.59 60.7202 136.503 60.8792 136.395 61.0275C136.349 61.0275 136.664 60.3171 137.01 59.1555C137.901 56.117 137.892 52.9335 136.984 49.8987C136.597 48.7415 136.277 48.0535 136.323 48.0401Z" fill="#263238"/>
<path d="M136.762 49.5011C136.989 48.7769 137.356 48.0912 137.847 47.4728C138.261 46.8059 138.799 46.2022 139.439 45.6857C139.495 45.7304 138.813 46.5301 138.08 47.5755C137.346 48.6209 136.835 49.5279 136.762 49.5011Z" fill="#263238"/>
<path d="M102.796 52.271C102.586 51.9718 102.413 51.6543 102.28 51.3238C101.934 50.6537 101.541 49.8719 101.102 49.0141L99.8979 46.7088C99.7103 46.3976 99.558 46.0714 99.4432 45.7349C99.6921 46.01 99.902 46.31 100.068 46.6284C100.425 47.2002 100.88 48.0044 101.35 48.9069C101.82 49.8093 102.197 50.6448 102.455 51.2568C102.615 51.5821 102.729 51.9225 102.796 52.271Z" fill="#263238"/>
<path d="M144.3 106.758H141.262V152.426H144.3V106.758Z" fill="#455A64"/>
<path d="M144.76 101.026H97.7589C95.8185 101.026 94.2455 102.385 94.2455 104.062C94.2455 105.738 95.8185 107.097 97.7589 107.097H144.76C146.701 107.097 148.274 105.738 148.274 104.062C148.274 102.385 146.701 101.026 144.76 101.026Z" fill="#455A64"/>
<path d="M144.269 106.338L151.787 118.914L161.056 127.371C161.214 127.516 161.336 127.687 161.415 127.874C161.493 128.061 161.527 128.26 161.513 128.458C161.499 128.657 161.438 128.851 161.333 129.028C161.229 129.206 161.084 129.362 160.906 129.489C160.7 129.637 160.456 129.74 160.194 129.789C159.933 129.838 159.661 129.832 159.403 129.771C156.065 128.989 143.934 125.861 143.463 125.223C142.725 124.208 134.339 112.298 134.339 112.298L144.269 106.338Z" fill="#263238"/>
<path d="M160.906 129.498L142.761 124.28L143.097 124.807C143.392 125.257 143.854 125.608 144.409 125.803C145.907 126.299 150.092 127.59 159.361 129.802C159.629 129.866 159.91 129.872 160.181 129.819C160.451 129.766 160.702 129.655 160.911 129.498H160.906Z" fill="#455A64"/>
<path d="M154.189 125.62C154.293 125.62 154.189 124.812 154.84 124.056C155.491 123.301 156.349 123.087 156.323 123.002C156.297 122.917 156.07 122.957 155.708 123.074C155.238 123.237 154.834 123.517 154.546 123.878C154.252 124.236 154.084 124.659 154.06 125.097C154.055 125.433 154.148 125.629 154.189 125.62Z" fill="white"/>
<path d="M156.287 126.8C156.39 126.8 156.592 126.201 157.222 125.665C157.853 125.129 158.55 124.932 158.524 124.847C158.498 124.762 157.667 124.825 156.974 125.446C156.282 126.067 156.168 126.804 156.287 126.8Z" fill="white"/>
<path d="M150.934 124.387C151.043 124.414 151.353 123.458 152.242 122.551C153.13 121.644 154.153 121.211 154.102 121.112C154.05 121.014 152.908 121.367 151.968 122.35C151.027 123.333 150.847 124.387 150.934 124.387Z" fill="white"/>
<path d="M148.279 120.728C148.367 120.786 148.976 120.125 149.989 119.602C151.002 119.08 151.957 118.91 151.942 118.82C151.926 118.731 150.909 118.767 149.803 119.339C148.697 119.911 148.201 120.692 148.279 120.728Z" fill="white"/>
<path d="M119.185 93.7884C119.185 93.7884 116.958 100.378 117.418 107.272C117.878 114.165 118.508 146.109 118.271 146.64C118.033 147.172 130.154 148.758 130.154 148.758C130.154 148.758 133.218 132.724 133.833 128.613C134.448 124.503 135.822 123.574 135.672 112.441C135.522 101.307 138.896 103.64 141.355 99.9537C143.815 96.268 144.724 92.8056 143.345 86.4616C141.965 80.1176 138.984 78.1116 138.984 78.1116L122.967 79.1749L118.193 91.7065L119.185 93.7884Z" fill="#263238"/>
<path d="M101.179 78.9382C101.179 78.9382 116.437 72.4467 120.813 72.4467C125.189 72.4467 128.32 73.9121 131.472 78.9382C134.623 83.9642 148.666 113.285 148.666 113.285L138.007 118.731C138.007 118.731 124.445 101.348 121.541 97.1571L118.617 92.9709C118.617 92.9709 119.103 98.8324 115.951 100.928C112.799 103.023 104.584 100.718 101.179 97.577C97.7744 94.4363 94.8811 91.5056 96.0901 86.2695C97.2991 81.0335 101.179 78.9382 101.179 78.9382Z" fill="#263238"/>
<path d="M101.179 78.9382L100.988 79.0633C100.859 79.1482 100.673 79.2732 100.44 79.4564C99.7512 79.9889 99.1358 80.5885 98.6062 81.2435C97.753 82.2896 97.0892 83.4421 96.6377 84.6612C96.0034 86.2994 95.7729 88.0343 95.9609 89.7542C96.1108 90.7614 96.4493 91.7407 96.9632 92.6537C97.5417 93.6469 98.2526 94.578 99.0816 95.4281C99.5001 95.8749 99.9599 96.3216 100.43 96.7684C100.9 97.2152 101.37 97.6619 101.908 98.0863C103.042 98.9253 104.306 99.623 105.664 100.159C107.1 100.747 108.615 101.177 110.174 101.442C110.984 101.58 111.808 101.649 112.634 101.647C113.475 101.657 114.311 101.524 115.093 101.254C115.479 101.114 115.83 100.911 116.126 100.655C116.294 100.538 116.443 100.403 116.571 100.253C116.713 100.113 116.843 99.9636 116.958 99.8064C117.433 99.1584 117.782 98.4476 117.992 97.7021C118.436 96.1592 118.61 94.5674 118.508 92.9799V92.5912L118.741 92.9218C120.141 94.9099 121.526 96.9873 123.06 99.0558C124.595 101.124 126.196 103.224 127.834 105.373C131.12 109.662 134.551 114.112 138.126 118.673L137.956 118.642L139.712 117.748L148.615 113.2L148.558 113.334C144.331 104.533 140.291 96.2412 136.561 88.7848C135.62 86.9218 134.706 85.1079 133.791 83.3611C132.877 81.6143 131.993 79.9166 130.981 78.3574C130.478 77.5949 129.916 76.8635 129.296 76.1683C128.707 75.4977 128.031 74.8877 127.281 74.35C126.559 73.84 125.75 73.4286 124.884 73.1303C124.055 72.8518 123.186 72.6715 122.301 72.5942L121.655 72.545H121.014C120.804 72.5404 120.593 72.5493 120.384 72.5718C120.176 72.5817 119.969 72.6025 119.764 72.6344C119.361 72.7103 118.958 72.7684 118.565 72.8578L117.413 73.1348C115.909 73.5413 114.514 73.9747 113.223 74.4125C110.639 75.2792 108.459 76.1102 106.682 76.7893C104.904 77.4683 103.546 78.0223 102.621 78.3976L101.587 78.822L101.231 78.9605C101.231 78.9605 101.345 78.9024 101.577 78.8042L102.61 78.3574C103.53 77.9732 104.889 77.4147 106.656 76.7178C108.423 76.0208 110.603 75.1854 113.187 74.3053C114.478 73.8585 115.873 73.4118 117.382 73.0097L118.539 72.7282C118.932 72.6344 119.34 72.5763 119.748 72.4959C119.958 72.4638 120.171 72.4429 120.384 72.4333C120.596 72.4072 120.81 72.3968 121.024 72.4021H121.675L122.332 72.4467C123.234 72.5231 124.121 72.7049 124.967 72.9873C125.829 73.287 126.634 73.6983 127.354 74.207C128.124 74.7476 128.818 75.3655 129.42 76.0476C130.053 76.7447 130.623 77.4826 131.125 78.2546C132.159 79.8228 133.037 81.5205 133.962 83.2673C134.887 85.0141 135.801 86.8414 136.742 88.6865C140.493 96.1429 144.533 104.43 148.77 113.236L148.811 113.321L148.713 113.37L139.816 117.918L138.059 118.812L137.956 118.865L137.889 118.78C134.334 114.214 130.888 109.765 127.602 105.471C125.964 103.327 124.362 101.223 122.828 99.1496C121.293 97.0767 119.914 94.9992 118.519 93.0067L118.73 92.9486C118.836 94.5569 118.662 96.1698 118.214 97.7334C117.998 98.4974 117.64 99.2262 117.155 99.8912C117.035 100.048 116.902 100.198 116.757 100.338C116.619 100.492 116.463 100.633 116.292 100.758C115.971 101.029 115.592 101.243 115.176 101.388C114.367 101.663 113.503 101.799 112.634 101.79C111.796 101.791 110.96 101.72 110.138 101.58C108.563 101.309 107.032 100.871 105.581 100.275C104.21 99.7276 102.934 99.0179 101.789 98.1668C101.267 97.7424 100.77 97.2951 100.301 96.8265C99.8307 96.3797 99.3709 95.933 98.9524 95.4862C98.1161 94.626 97.4015 93.6827 96.8237 92.6761C96.3079 91.7498 95.9711 90.7568 95.8265 89.7364C95.5388 86.6933 96.5031 83.6602 98.5494 81.172C99.0863 80.514 99.7125 79.914 100.415 79.3849C100.655 79.218 100.911 79.0686 101.179 78.9382Z" fill="#455A64"/>
<path d="M117.02 81.8823C116.551 82.2838 116.197 82.775 115.987 83.3164C115.769 83.909 115.697 84.5344 115.775 85.1526C115.881 85.9104 116.068 86.6582 116.333 87.3864C116.782 88.7301 117.335 90.0465 117.986 91.3268L118.591 92.4884C118.679 92.6301 118.748 92.78 118.798 92.9351C118.682 92.8128 118.583 92.6793 118.503 92.5375C118.327 92.2739 118.09 91.8897 117.821 91.4027C117.117 90.1301 116.536 88.8091 116.085 87.4534C115.822 86.7084 115.649 85.9418 115.568 85.166C115.498 84.5233 115.591 83.8752 115.842 83.2672C116.011 82.8559 116.281 82.4809 116.633 82.1682C116.741 82.0531 116.872 81.9561 117.02 81.8823Z" fill="#455A64"/>
<path d="M130.748 135.86L130.025 149.942L133.161 161.218C133.215 161.41 133.223 161.61 133.184 161.805C133.145 162 133.059 162.186 132.933 162.351C132.807 162.517 132.643 162.658 132.451 162.765C132.259 162.873 132.044 162.946 131.818 162.978C131.556 163.018 131.287 163.003 131.033 162.934C130.779 162.864 130.549 162.743 130.361 162.581C127.927 160.472 119.257 152.573 119.221 151.818C119.159 150.621 118.761 136.753 118.761 136.753L130.748 135.86Z" fill="#263238"/>
<path d="M131.818 162.965L119.159 150.683V151.282C119.154 151.795 119.351 152.295 119.717 152.698C120.751 153.771 123.587 156.674 130.33 162.567C130.523 162.735 130.762 162.859 131.024 162.929C131.286 162.998 131.564 163.011 131.833 162.965H131.818Z" fill="#455A64"/>
<path d="M128.248 156.741C128.341 156.782 128.728 156.049 129.705 155.669C130.681 155.29 131.565 155.482 131.59 155.397C131.616 155.312 131.399 155.249 131.022 155.196C130.521 155.134 130.01 155.202 129.555 155.392C129.096 155.572 128.708 155.864 128.439 156.232C128.242 156.523 128.211 156.728 128.248 156.741Z" fill="white"/>
<path d="M129.364 158.645C129.441 158.707 129.973 158.261 130.821 158.064C131.668 157.867 132.371 158.006 132.417 157.917C132.464 157.827 131.689 157.532 130.728 157.769C129.767 158.006 129.281 158.609 129.364 158.645Z" fill="white"/>
<path d="M126.15 154.28C126.222 154.351 127.044 153.659 128.33 153.257C129.617 152.855 130.753 152.908 130.759 152.81C130.764 152.712 129.581 152.52 128.206 152.962C126.832 153.404 126.072 154.24 126.15 154.28Z" fill="white"/>
<path d="M125.959 149.986C126 150.071 126.904 149.763 128.077 149.75C129.25 149.736 130.175 149.995 130.211 149.906C130.247 149.817 129.333 149.41 128.072 149.437C126.811 149.464 125.907 149.919 125.959 149.986Z" fill="white"/>
<path d="M101.112 106.758H98.0741V152.426H101.112V106.758Z" fill="#455A64"/>
<path d="M124.207 63.2747C124.156 63.1919 124.083 63.1202 123.995 63.0648L122.735 62.1712L122.099 64.0164C122.253 64.1107 122.426 64.1778 122.61 64.2138C122.793 64.2498 122.983 64.2541 123.169 64.2263C123.541 64.1687 123.873 63.9876 124.093 63.7215C124.154 63.661 124.196 63.5885 124.215 63.5105C124.235 63.4325 124.232 63.3515 124.207 63.2747Z" fill="#FFAC1C"/>
<path d="M108.531 54.2234L123.572 65.4996L124.972 66.0223L125.747 66.3395L125.37 65.7811L124.605 64.6507L109.384 53.3745C109.26 53.282 109.1 53.2334 108.936 53.2384C108.772 53.2433 108.617 53.3015 108.5 53.4013C108.437 53.4558 108.388 53.5209 108.355 53.5926C108.322 53.6643 108.307 53.7411 108.31 53.8182C108.312 53.8952 108.334 53.971 108.372 54.0407C108.41 54.1104 108.464 54.1726 108.531 54.2234Z" fill="#455A64"/>
<path d="M109.069 60.8042L110.216 60.9471C110.216 60.9471 116.059 58.8786 116.901 58.758C117.552 58.6642 120.694 59.2048 122.068 59.455C122.342 59.5012 122.59 59.6278 122.769 59.8133C122.947 59.9989 123.047 60.2321 123.05 60.4736V60.4959C123.042 60.6926 122.969 60.8832 122.84 61.0454C122.711 61.2076 122.531 61.3347 122.321 61.4118C122.478 61.4484 122.624 61.5149 122.747 61.6062C122.871 61.6975 122.969 61.8115 123.035 61.9398C123.102 62.0681 123.134 62.2075 123.13 62.348C123.127 62.4885 123.087 62.6265 123.014 62.752C122.657 63.5517 121.422 63.4624 121.422 63.4624L119.356 63.5607C119.356 63.5607 119.872 63.6813 120.678 63.8153C121.052 63.8589 121.416 63.9508 121.758 64.0879C121.758 64.0879 123.04 65.0752 121.862 65.5398C121.476 65.7074 121.047 65.7859 120.616 65.7677C120.616 65.7677 121.019 66.8622 120.069 67.0812C119.118 67.3001 112.789 67.0812 112.789 67.0812C112.374 66.9435 111.936 66.8665 111.492 66.8533L109.709 66.7997L109.069 60.8042Z" fill="#FFBF9D"/>
<path d="M122.239 61.4117C121.696 61.431 121.152 61.4191 120.611 61.376C120.068 61.365 119.526 61.3233 118.989 61.2509C119.532 61.2313 120.075 61.2417 120.616 61.2821C121.16 61.2931 121.702 61.3363 122.239 61.4117Z" fill="#FFAC1C"/>
<path d="M116.049 66.612C116.049 66.612 115.956 66.6119 115.847 66.5092C115.709 66.3902 115.626 66.2311 115.615 66.0624C115.608 65.9021 115.664 65.7444 115.775 65.6157C115.863 65.5129 115.946 65.4772 115.956 65.4861C115.966 65.4951 115.904 65.5531 115.837 65.6514C115.754 65.7792 115.714 65.9249 115.723 66.0714C115.739 66.2182 115.803 66.358 115.909 66.4735C115.987 66.5717 116.059 66.612 116.049 66.612Z" fill="#FFAC1C"/>
<path d="M115.878 64.7759C115.878 64.7759 115.77 64.7759 115.625 64.7044C115.53 64.6538 115.448 64.5857 115.386 64.5048C115.324 64.4239 115.284 64.3322 115.268 64.2363C115.252 64.1404 115.26 64.0426 115.292 63.9498C115.324 63.8569 115.38 63.7714 115.455 63.6992C115.568 63.5875 115.672 63.5562 115.677 63.5652C115.682 63.5741 115.605 63.6277 115.517 63.7394C115.403 63.8799 115.354 64.0517 115.377 64.2219C115.407 64.3965 115.51 64.5555 115.667 64.6687C115.791 64.7357 115.884 64.7625 115.878 64.7759Z" fill="#FFAC1C"/>
<path d="M115.754 62.618C115.754 62.618 115.646 62.5778 115.537 62.4482C115.395 62.2728 115.334 62.0575 115.367 61.8451C115.402 61.6334 115.528 61.4408 115.718 61.3045C115.868 61.2062 115.982 61.1839 115.987 61.1928C115.992 61.2017 115.894 61.2509 115.77 61.3537C115.614 61.4916 115.511 61.6679 115.475 61.8585C115.446 62.0499 115.49 62.2442 115.599 62.4125C115.687 62.542 115.77 62.5912 115.754 62.618Z" fill="#FFAC1C"/>
<path d="M116.4 59.8302C116.4 59.8302 116.338 59.8078 116.297 59.7364C116.247 59.6427 116.236 59.5369 116.266 59.437C116.291 59.3345 116.359 59.2437 116.457 59.1824C116.529 59.1377 116.586 59.1332 116.591 59.1422C116.597 59.1511 116.426 59.2539 116.369 59.4594C116.347 59.5834 116.358 59.7102 116.4 59.8302Z" fill="#FFAC1C"/>
<path d="M119.552 63.5338C119.262 63.5858 118.965 63.6053 118.668 63.5919C118.374 63.6106 118.077 63.6001 117.785 63.5606C118.075 63.5085 118.372 63.4875 118.668 63.4981C118.964 63.4794 119.26 63.4914 119.552 63.5338Z" fill="#FFAC1C"/>
<path d="M120.601 65.7854C120.061 65.7486 119.524 65.6815 118.994 65.5844C118.456 65.5194 117.925 65.4224 117.403 65.294C117.943 65.3278 118.48 65.395 119.009 65.4951C119.547 65.56 120.079 65.6571 120.601 65.7854Z" fill="#FFAC1C"/>
<path d="M111.528 66.8577H111.616H111.864C112.196 66.8835 112.522 66.9466 112.835 67.0454C113.667 67.0454 114.902 67.099 116.452 67.1169C117.222 67.1169 118.074 67.1169 118.994 67.1169C119.221 67.1169 119.454 67.1169 119.691 67.0811C119.924 67.0811 120.154 67.0304 120.358 66.9337C120.453 66.8745 120.532 66.7976 120.588 66.7087C120.644 66.6198 120.677 66.5211 120.683 66.4199C120.711 66.2049 120.686 65.9874 120.611 65.7811V65.7096H120.699C120.959 65.7186 121.219 65.6899 121.469 65.6247C121.729 65.5682 121.974 65.4663 122.187 65.3254C122.282 65.2467 122.344 65.1428 122.362 65.0303C122.381 64.9177 122.356 64.803 122.29 64.7044C122.167 64.4804 121.991 64.2811 121.774 64.1191C121.404 63.9911 121.019 63.8982 120.627 63.8421L119.387 63.6009L118.916 63.5115L119.397 63.4892L121.464 63.3909C121.81 63.4104 122.156 63.3503 122.466 63.2167C122.663 63.1207 122.825 62.9801 122.937 62.81C123.048 62.64 123.103 62.4469 123.096 62.2516C123.085 62.0649 123.006 61.886 122.871 61.7401C122.735 61.5943 122.55 61.4888 122.342 61.4386L122.166 61.3894L122.332 61.3313C122.526 61.2568 122.694 61.1374 122.815 60.986C122.936 60.8347 123.007 60.6573 123.019 60.4736C123.028 60.2928 122.978 60.1135 122.876 59.9557C122.774 59.7979 122.623 59.6678 122.44 59.58C122.256 59.4974 122.057 59.4444 121.851 59.4237L121.236 59.312L120.027 59.1109C119.242 58.9858 118.477 58.8697 117.744 58.7937C117.563 58.7937 117.382 58.758 117.201 58.7535C117.115 58.7467 117.029 58.7467 116.943 58.7535L116.69 58.8027C116.354 58.892 116.033 58.9903 115.718 59.0841C113.212 59.8794 111.311 60.5495 110.247 60.9114L109.389 60.7952L109.172 60.7639L109.389 60.7863L110.257 60.8801C111.316 60.5004 113.207 59.8123 115.713 59.0037C116.028 58.9054 116.349 58.8071 116.69 58.7178C116.778 58.6952 116.868 58.6773 116.958 58.6642C117.051 58.6575 117.144 58.6575 117.237 58.6642C117.422 58.6674 117.607 58.6793 117.79 58.6999C118.529 58.7714 119.294 58.8875 120.084 59.0126L121.288 59.2092L121.908 59.3209C122.126 59.3443 122.337 59.4002 122.533 59.4862C122.736 59.5822 122.903 59.7249 123.017 59.8985C123.131 60.072 123.187 60.2696 123.179 60.4691C123.168 60.6745 123.091 60.8731 122.956 61.0421C122.82 61.2112 122.633 61.344 122.414 61.4252V61.3179C122.648 61.3795 122.857 61.4954 123.019 61.653C123.184 61.8159 123.272 62.0263 123.267 62.2427C123.263 62.4571 123.203 62.6679 123.091 62.8593C122.976 63.0502 122.795 63.206 122.575 63.306C122.242 63.4498 121.871 63.5146 121.5 63.4936L119.433 63.5875V63.4758L120.668 63.717C121.076 63.7749 121.475 63.8738 121.856 64.0119C122.074 64.1907 122.25 64.4047 122.373 64.6418C122.425 64.7328 122.452 64.833 122.452 64.9344C122.452 65.0359 122.425 65.1361 122.373 65.2271C122.332 65.2836 122.281 65.3347 122.223 65.379C121.998 65.534 121.738 65.6452 121.459 65.7051C121.192 65.7734 120.914 65.8021 120.637 65.79L120.699 65.723C120.776 65.9444 120.802 66.1765 120.777 66.4065C120.765 66.5215 120.725 66.633 120.659 66.7333C120.593 66.8336 120.503 66.9203 120.394 66.9873C120.175 67.0934 119.927 67.1488 119.676 67.1482C119.433 67.1705 119.201 67.1705 118.968 67.1794C118.048 67.1794 117.196 67.1794 116.421 67.1794C114.871 67.1526 113.646 67.1079 112.804 67.0722C112.498 66.9721 112.179 66.9046 111.854 66.8712L111.606 66.8399L111.528 66.8577Z" fill="#FFAC1C"/>
<path d="M110.738 66.7863C110.738 66.7863 90.0708 67.8362 88.216 67.0096C86.3612 66.1831 84.1498 63.6723 85.6327 60.1876C87.1155 56.7029 88.7637 53.8749 88.7637 53.8749L93.486 56.0685L98.3996 58.5212L97.5367 59.7498L111.001 60.9158L110.738 66.7863Z" fill="#FFBF9D"/>
<path d="M97.5419 59.7498C97.5419 59.7498 97.1647 59.6426 96.5447 59.4907C95.7402 59.2967 94.9222 59.1475 94.0957 59.0439C93.2689 58.9363 92.4358 58.8692 91.6002 58.8429C90.9595 58.8205 90.5669 58.8428 90.5669 58.8116C90.6587 58.7944 90.752 58.7839 90.8459 58.7803C91.0267 58.7803 91.2902 58.758 91.6105 58.758C92.4531 58.7624 93.2941 58.8207 94.1267 58.9322C94.9607 59.0375 95.7832 59.2019 96.5861 59.4236C96.8909 59.513 97.1337 59.5934 97.2991 59.656C97.3838 59.6792 97.4653 59.7107 97.5419 59.7498Z" fill="#FFAC1C"/>
<path d="M145.856 49.1616L148.16 57.1318L153.327 52.8027L158.731 55.4118L150.087 64.825C148.341 66.9784 145.881 67.8272 143.949 67.4028C143.562 67.3128 143.187 67.1901 142.828 67.0365C141.562 66.48 140.477 65.6596 139.669 64.6495C138.862 63.6395 138.358 62.4715 138.204 61.2509L136.654 50.9218L145.856 49.1616Z" fill="#FFBF9D"/>
<path d="M143.014 62.6627C143.064 62.5642 143.105 62.4626 143.138 62.3589C143.21 62.1578 143.319 61.8719 143.469 61.5234C143.618 61.1749 143.81 60.7639 144.047 60.3172C144.285 59.8704 144.564 59.3924 144.915 58.9054C145.267 58.4184 145.608 57.9717 145.949 57.5651C146.29 57.1586 146.615 56.828 146.899 56.551C147.183 56.274 147.416 56.0506 147.592 55.9032C147.684 55.8308 147.769 55.7516 147.845 55.6664C147.746 55.7318 147.652 55.8035 147.566 55.8808C147.385 56.0193 147.137 56.2338 146.842 56.5063C146.548 56.7788 146.217 57.1228 145.866 57.5115C145.495 57.9424 145.15 58.3897 144.833 58.8518C144.514 59.3124 144.226 59.7882 143.97 60.277C143.732 60.7237 143.546 61.1437 143.407 61.4966C143.267 61.8495 143.164 62.1399 143.107 62.341C143.067 62.4462 143.036 62.5537 143.014 62.6627Z" fill="#FFAC1C"/>
<path d="M147.7 41.9062C147.7 41.9062 134.236 52.1817 131.559 54.0715C130.324 54.8348 129.02 55.5102 127.659 56.0909L131.342 56.7565L147.7 41.9062Z" fill="#E0E0E0"/>
<path d="M149.116 40.5302L169.194 41.1557L169.478 43.0097L148.516 59.4862L130.5 58.4632L129.048 57.0201L149.116 40.5302Z" fill="#E0E0E0"/>
<path d="M169.638 43.0097C169.51 43.0155 169.383 43.0155 169.255 43.0097H168.17L164.063 42.9873L150.175 42.8399L150.268 42.8086L147.648 44.9218L135.667 54.5495L132.05 57.4356C131.626 57.7662 131.296 58.0253 131.048 58.2129L130.784 58.414C130.722 58.4542 130.691 58.4765 130.686 58.4721L130.764 58.3961L131.012 58.1817L131.978 57.373L135.564 54.4289L147.447 44.7789L150.066 42.6657L150.103 42.6344H150.159L164.047 42.8622L168.17 42.9337L169.276 42.9695C169.398 42.9724 169.519 42.9858 169.638 43.0097Z" fill="#263238"/>
<path d="M169.204 41.5934C169.073 41.6061 168.942 41.6061 168.811 41.5934H167.695L163.531 41.5041L149.462 41.1109L149.56 41.0797L146.817 43.3805C142.11 47.2718 137.749 50.6939 134.556 53.1377C132.954 54.3574 131.652 55.3358 130.743 56.0059L129.71 56.7699L129.436 56.9665C129.369 57.0067 129.338 57.029 129.333 57.0245C129.357 56.9968 129.385 56.9713 129.415 56.9486L129.674 56.7341C129.927 56.542 130.263 56.2874 130.707 55.9389L134.458 53.0171C137.62 50.542 141.96 47.102 146.662 43.2152L149.41 40.9322L149.452 40.8965H149.508L163.577 41.3656L167.711 41.5264L168.832 41.58C168.956 41.5776 169.08 41.5821 169.204 41.5934Z" fill="#263238"/>
<path d="M129.818 57.6276L129.901 57.5517L130.149 57.3372L131.136 56.5286L134.783 53.5978L146.889 43.988L149.736 41.7542L149.777 41.7229H149.829L163.65 42.1027L167.731 42.2367L168.827 42.2859C168.955 42.2856 169.083 42.2961 169.209 42.3171C169.082 42.3238 168.954 42.3238 168.827 42.3171H167.726L163.645 42.2501L149.824 41.9463L149.917 41.915L147.07 44.1488L134.913 53.7095L131.203 56.5867C130.774 56.9128 130.438 57.1719 130.17 57.3596L129.901 57.5606C129.854 57.6097 129.823 57.6321 129.818 57.6276Z" fill="#263238"/>
<path d="M156.117 47.8838C156.128 47.7732 156.166 47.6659 156.228 47.5686C156.29 47.4714 156.375 47.3863 156.477 47.3187C156.579 47.2511 156.696 47.2025 156.821 47.176C156.945 47.1495 157.075 47.1456 157.202 47.1645C157.491 47.2047 157.873 47.2673 158.333 47.3611C159.532 47.5979 162.906 49.51 162.916 50.14C162.948 50.3673 162.912 50.598 162.812 50.8099C162.711 51.0219 162.55 51.2081 162.342 51.3507C162.342 51.3507 162.931 52.2442 162.575 52.8697C162.27 53.4147 161.19 53.4951 161.19 53.4951C161.19 53.4951 161.857 54.3886 160.968 54.8354C160.658 55.0007 160.043 55.3134 159.893 55.4251C159.818 55.5835 159.721 55.7335 159.604 55.8719C159.396 56.07 159.14 56.2265 158.854 56.3306C158.569 56.4348 158.26 56.484 157.951 56.475H157.744C157.356 56.4633 156.987 56.3262 156.711 56.0908C155.44 55.0096 151.859 51.8913 151.885 51.1362C151.885 51.1362 151.203 50.5465 151.575 50.0417C151.947 49.5368 153.048 49.8942 153.048 49.8942C152.908 49.7707 152.817 49.6113 152.79 49.4399C152.763 49.2685 152.801 49.0941 152.898 48.9426C153.239 48.411 155.238 48.6746 156.132 48.8756C156.845 49.0365 158.829 49.5368 158.829 49.5368C158.829 49.5368 156.246 48.4512 156.148 48.0357C156.132 47.9859 156.122 47.9351 156.117 47.8838Z" fill="#FFBF9D"/>
<path d="M151.87 51.1451C151.948 51.2081 152.033 51.2649 152.123 51.3149C152.283 51.4221 152.531 51.5696 152.836 51.7617C153.451 52.1146 154.324 52.5658 155.311 53.026C156.297 53.4862 157.217 53.8659 157.894 54.1295L158.69 54.4378C158.783 54.4809 158.882 54.514 158.984 54.5361C158.895 54.4863 158.802 54.443 158.705 54.4065L157.925 54.0759C157.264 53.7944 156.375 53.4057 155.368 52.9456C154.36 52.4854 153.507 52.0521 152.887 51.7125C152.572 51.5428 152.324 51.4043 152.154 51.306C152.066 51.2439 151.971 51.19 151.87 51.1451Z" fill="#FFAC1C"/>
<path d="M152.913 49.8674C153.004 49.9061 153.099 49.9361 153.197 49.9568C153.383 50.0104 153.652 50.0819 153.983 50.1846C154.639 50.3857 155.533 50.7029 156.494 51.0781C156.979 51.2703 157.444 51.4445 157.858 51.6232C158.271 51.8019 158.633 51.9717 158.932 52.1236C159.232 52.2755 159.449 52.405 159.635 52.4989C159.716 52.5507 159.803 52.5956 159.893 52.6329C159.877 52.616 159.858 52.601 159.837 52.5882L159.656 52.472C159.435 52.329 159.206 52.1963 158.969 52.0744C158.669 51.9136 158.312 51.7304 157.899 51.5517C157.486 51.373 157.021 51.1898 156.535 50.9977C155.71 50.6618 154.865 50.3635 154.003 50.1042C153.673 50.0059 153.399 49.9434 153.208 49.8987C153.111 49.8817 153.012 49.8712 152.913 49.8674Z" fill="#FFAC1C"/>
<path d="M158.814 49.5458C158.936 49.6429 159.071 49.7269 159.217 49.796C159.475 49.9345 159.842 50.1132 160.25 50.3142C160.658 50.5152 161.015 50.6984 161.283 50.8414C161.419 50.9221 161.561 50.9952 161.707 51.0603C161.593 50.9559 161.465 50.8643 161.325 50.7878C161.077 50.6359 160.72 50.4348 160.317 50.2383C159.914 50.0417 159.542 49.8674 159.284 49.7424C159.134 49.6652 158.977 49.5995 158.814 49.5458Z" fill="#FFAC1C"/>
<path d="M152.939 52.6418C152.985 52.7144 153.039 52.7832 153.099 52.8473C153.208 52.9724 153.373 53.1511 153.585 53.3655C154.009 53.8123 154.618 54.3573 155.3 54.9917C155.471 55.1481 155.626 55.3089 155.817 55.4385C156.008 55.5681 156.153 55.7155 156.334 55.8361C156.632 56.0475 156.967 56.2178 157.326 56.341C157.567 56.4269 157.824 56.4753 158.085 56.4839C158.155 56.4912 158.227 56.4912 158.297 56.4839C158.343 56.4839 158.369 56.4839 158.369 56.4839H158.085C157.832 56.4589 157.585 56.4017 157.351 56.3142C157.005 56.1865 156.683 56.0148 156.396 55.8049C156.223 55.6807 156.059 55.5479 155.905 55.4072C155.739 55.2643 155.584 55.1034 155.419 54.9605C154.747 54.3216 154.112 53.7721 153.678 53.3521C153.461 53.1422 153.29 52.9724 153.161 52.8518C153.093 52.7773 153.019 52.7072 152.939 52.6418Z" fill="#FFAC1C"/>
<path d="M49.3212 71.7989H43.643V152.015H49.3212V71.7989Z" fill="#455A64"/>
<path d="M196.701 71.7989H191.023V152.39H196.701V71.7989Z" fill="#455A64"/>
<path d="M220.24 67.157H23.1003V72.4467H220.24V67.157Z" fill="#455A64"/>
<path d="M152.831 65.79H124.92V67.1571H152.831V65.79Z" fill="#E0E0E0"/>
<path d="M189.354 14.9039H201.444L200.54 20.6448C200.54 20.6448 199.749 23.4773 197.915 23.4773H192.681C192.037 23.1361 191.48 22.6861 191.042 22.154C190.604 21.622 190.296 21.019 190.134 20.3812L189.354 14.9039Z" fill="#E0E0E0"/>
<path d="M189.354 14.9039C189.371 14.9627 189.383 15.0224 189.39 15.0826C189.39 15.2122 189.437 15.382 189.473 15.5964C189.545 16.0432 189.643 16.6999 189.772 17.5085L190.217 20.4393C190.382 21.0529 190.688 21.6316 191.117 22.1411C191.546 22.6506 192.088 23.0806 192.712 23.4058H192.671H196.856C197.218 23.4058 197.6 23.4058 197.967 23.4058C198.328 23.3898 198.672 23.265 198.938 23.0528C199.49 22.5906 199.907 22.0207 200.152 21.3909C200.258 21.1495 200.35 20.9034 200.426 20.6537C200.746 18.6255 201.057 16.691 201.336 14.9084L201.434 15.0022L192.764 14.962H190.263H189.592H189.354C189.426 14.9545 189.499 14.9545 189.571 14.962H190.222H192.697L201.434 14.9173H201.542V15.0112C201.263 16.7982 200.963 18.7282 200.648 20.7565C200.571 21.0157 200.476 21.2708 200.364 21.5205C200.109 22.1784 199.671 22.7721 199.088 23.2494C198.789 23.4876 198.404 23.6282 197.998 23.647C197.61 23.647 197.243 23.647 196.877 23.647H192.661C192.01 23.3124 191.445 22.8663 191.001 22.3363C190.557 21.8062 190.242 21.2032 190.077 20.5644C189.902 19.4162 189.783 18.4065 189.674 17.5845C189.566 16.7625 189.493 16.1281 189.437 15.6679L189.375 15.172C189.353 15.084 189.346 14.9937 189.354 14.9039Z" fill="#263238"/>
<path d="M200.535 17.8659L200.71 17.8302C200.597 17.8525 200.741 17.8302 200.767 17.8302C200.898 17.8235 201.029 17.8235 201.16 17.8302C201.031 17.8302 201.16 17.8302 201.206 17.8302C201.276 17.8414 201.345 17.8563 201.413 17.8749L201.583 17.924C201.661 17.924 201.583 17.924 201.552 17.924L201.661 17.9687C201.778 18.0198 201.89 18.078 201.997 18.1429C202.064 18.1831 201.997 18.1429 201.971 18.1429L202.038 18.1965C202.091 18.2375 202.141 18.2807 202.188 18.3261C202.224 18.3574 202.302 18.4467 202.229 18.3574L202.343 18.5137C202.379 18.5584 202.4 18.6075 202.431 18.6522C202.462 18.6969 202.431 18.6522 202.431 18.6254C202.447 18.6589 202.461 18.6933 202.472 18.7282C202.496 18.7863 202.515 18.8461 202.529 18.9069C202.529 18.9292 202.57 19.0811 202.555 19.0052C202.539 18.9292 202.555 19.0856 202.555 19.1079V19.2553C202.557 19.2911 202.557 19.3269 202.555 19.3626C202.555 19.3626 202.555 19.4609 202.555 19.3626C202.555 19.2643 202.555 19.4385 202.529 19.4653C202.503 19.4921 202.498 19.5681 202.477 19.6172C202.457 19.6664 202.395 19.8049 202.477 19.6932C202.42 19.7982 202.354 19.8997 202.281 19.997C202.262 20.0182 202.245 20.0406 202.229 20.064C202.229 20.064 202.302 19.9925 202.229 20.0372C202.157 20.0819 202.121 20.1444 202.059 20.1891C201.997 20.2338 201.904 20.2963 201.971 20.2561L201.868 20.3142C201.816 20.3421 201.762 20.3675 201.707 20.3901L201.63 20.4259C201.671 20.4259 201.718 20.3856 201.63 20.4259C201.589 20.4259 201.361 20.4884 201.222 20.5197C201.082 20.551 201.253 20.5197 201.263 20.5197H201.144H200.808C200.808 20.5197 200.664 20.5197 200.757 20.5197H200.638L200.405 20.4571C200.405 20.4571 200.302 20.4214 200.38 20.4571C200.457 20.4929 200.302 20.4214 200.302 20.4214C200.219 20.3734 200.126 20.3406 200.029 20.3249C199.931 20.3093 199.83 20.3111 199.733 20.3303C199.636 20.3495 199.545 20.3857 199.465 20.4367C199.384 20.4876 199.317 20.5522 199.267 20.6265C199.217 20.7008 199.185 20.7832 199.173 20.8686C199.161 20.954 199.169 21.0407 199.197 21.1232C199.226 21.2057 199.273 21.2823 199.337 21.3483C199.401 21.4143 199.48 21.4683 199.568 21.507C200.264 21.8232 201.072 21.8995 201.829 21.7203C202.587 21.5412 203.238 21.1201 203.65 20.542C204.046 19.9407 204.169 19.2339 203.996 18.5584C203.907 18.2301 203.744 17.9203 203.516 17.6466C203.288 17.3729 203 17.1408 202.668 16.9635C202.303 16.7642 201.895 16.6324 201.468 16.5762C201.041 16.5201 200.605 16.5409 200.188 16.6373C200.003 16.6823 199.845 16.7884 199.748 16.9328C199.652 17.0772 199.624 17.2486 199.672 17.4102C199.726 17.5706 199.85 17.7066 200.017 17.7898C200.185 17.8731 200.383 17.8971 200.571 17.857L200.535 17.8659Z" fill="#E0E0E0"/>
<path d="M200.535 17.866C200.457 17.8954 200.371 17.9077 200.287 17.9017C200.161 17.897 200.039 17.865 199.932 17.8088C199.824 17.7526 199.735 17.674 199.672 17.5801C199.574 17.4292 199.548 17.2511 199.6 17.0841C199.652 16.917 199.778 16.7743 199.951 16.6866C200.172 16.5975 200.41 16.5445 200.653 16.5302C200.923 16.5039 201.195 16.5039 201.465 16.5302C202.082 16.6124 202.658 16.8483 203.123 17.2093C203.665 17.626 204.012 18.1995 204.1 18.8221C204.211 19.5057 204.027 20.2009 203.583 20.7744C203.336 21.0769 203.019 21.3313 202.651 21.5214C202.284 21.7114 201.874 21.8329 201.449 21.8779C201.073 21.9257 200.69 21.9152 200.318 21.8466C200.142 21.8127 199.969 21.7679 199.801 21.7126L199.553 21.6143C199.459 21.5772 199.374 21.524 199.305 21.458C199.18 21.3227 199.113 21.155 199.113 20.9822C199.113 20.8093 199.18 20.6416 199.305 20.5064C199.435 20.3878 199.606 20.3093 199.793 20.2827C199.979 20.2561 200.171 20.2829 200.338 20.3589L200.194 20.4349C200.194 20.4141 200.204 20.3943 200.22 20.3788C200.236 20.3633 200.258 20.3531 200.281 20.35C200.3 20.3454 200.32 20.3454 200.338 20.35H200.369H200.411C200.411 20.3053 200.488 20.484 200.369 20.4974C200.356 20.5007 200.341 20.5007 200.328 20.4974H200.287C200.287 20.4974 200.287 20.4974 200.261 20.4751C200.209 20.2919 200.411 20.3455 200.349 20.3411H200.39H200.426H200.498C200.597 20.3717 200.699 20.3942 200.803 20.4081L200.855 20.4349C200.855 20.4349 200.886 20.4349 200.855 20.5064C200.824 20.5778 200.777 20.5734 200.772 20.5734H200.679H200.648C200.648 20.5734 200.591 20.551 200.622 20.4706C200.653 20.3902 200.695 20.4349 200.7 20.4304H200.938C201.039 20.4349 201.141 20.4349 201.242 20.4304V20.5868H201.211H201.16C201.137 20.5836 201.116 20.576 201.098 20.5644C201.088 20.5512 201.082 20.5357 201.082 20.5198C201.082 20.5039 201.088 20.4883 201.098 20.4751C201.098 20.4438 201.098 20.4751 201.098 20.4483C201.098 20.4215 201.134 20.4483 201.139 20.4259H201.217L201.377 20.3902L201.532 20.3545L201.604 20.3321C201.563 20.3008 201.604 20.4885 201.656 20.4662C201.707 20.4438 201.687 20.4662 201.687 20.4662H201.656L201.573 20.3276C201.645 20.3008 201.713 20.2651 201.78 20.2338L201.878 20.1847H201.909H201.961C201.981 20.1884 201.999 20.1978 202.012 20.2115C202.054 20.2428 202.012 20.3142 202.012 20.3142H201.986C201.968 20.3205 201.948 20.3205 201.93 20.3142C201.915 20.3127 201.901 20.3078 201.889 20.2999C201.877 20.2921 201.868 20.2816 201.862 20.2696C201.831 20.2249 201.899 20.1668 201.862 20.1847C201.924 20.14 201.971 20.1043 202.028 20.0551L202.105 19.9836C202.105 19.9836 202.193 19.9836 202.214 20.0328C202.234 20.0819 202.214 20.073 202.214 20.0819L202.271 20.1489L202.131 20.0641C202.229 19.9479 202.296 19.8228 202.374 19.7111L202.524 19.7692V19.7915C202.524 19.7915 202.524 19.7915 202.462 19.8139C202.439 19.8116 202.419 19.802 202.404 19.7871C202.39 19.7721 202.383 19.7529 202.384 19.7335L202.41 19.6843C202.423 19.6567 202.433 19.6283 202.441 19.5994C202.441 19.5369 202.482 19.4833 202.498 19.4207V19.3716C202.498 19.3716 202.498 19.3716 202.529 19.3358C202.541 19.3304 202.554 19.3275 202.568 19.3275C202.581 19.3275 202.594 19.3304 202.606 19.3358C202.606 19.3358 202.632 19.3358 202.632 19.3582C202.632 19.3805 202.632 19.4073 202.632 19.4073V19.452C202.684 19.5056 202.41 19.4788 202.482 19.452V19.4118C202.482 19.4118 202.482 19.385 202.482 19.3716C202.487 19.3121 202.487 19.2524 202.482 19.1929C202.488 19.1364 202.488 19.0796 202.482 19.0231V18.974C202.484 18.9633 202.488 18.9531 202.494 18.9438C202.5 18.9346 202.509 18.9266 202.519 18.9204C202.53 18.914 202.544 18.9106 202.557 18.9106C202.571 18.9106 202.584 18.914 202.596 18.9204C202.596 18.9204 202.596 18.9204 202.622 18.9427V18.974C202.622 18.974 202.622 18.974 202.622 18.9963C202.611 19.008 202.597 19.0172 202.581 19.0231C202.564 19.0263 202.547 19.0251 202.531 19.0195C202.515 19.0139 202.502 19.0042 202.493 18.9918C202.493 18.9338 202.493 18.9248 202.467 18.8891C202.442 18.786 202.409 18.6845 202.369 18.5853L202.493 18.5451V18.5674C202.494 18.5815 202.49 18.5956 202.481 18.6071C202.471 18.6187 202.457 18.6268 202.441 18.63C202.389 18.63 202.389 18.63 202.384 18.63L202.348 18.5763L202.291 18.4781L202.167 18.3083L202.271 18.2458V18.2726C202.275 18.2809 202.278 18.2901 202.278 18.2994C202.278 18.3086 202.275 18.3178 202.271 18.3262C202.203 18.3976 202.157 18.3262 202.167 18.3262L202.126 18.2815C202.126 18.2815 202.074 18.2368 202.048 18.2145C202.023 18.1921 201.95 18.1251 201.893 18.0804L201.971 18.009H202.002C201.873 18.1609 201.95 18.0447 201.924 18.0804L201.852 18.0402L201.723 17.9688C201.645 17.9236 201.564 17.8833 201.48 17.8481L201.521 17.7722H201.563C201.563 17.7722 201.589 17.8213 201.563 17.8347C201.537 17.8481 201.563 17.8347 201.537 17.8347H201.496L201.408 17.8079C201.356 17.7897 201.302 17.7747 201.248 17.7632C201.199 17.7491 201.149 17.7387 201.098 17.732H201.031C201.062 17.732 200.969 17.7632 201.031 17.665H201.093V17.7275H200.741H200.721C200.721 17.7275 200.721 17.7275 200.721 17.6962H200.783C200.783 17.6962 200.783 17.6962 200.808 17.6962H200.721C200.656 17.7111 200.591 17.7201 200.524 17.723C200.584 17.6954 200.649 17.6758 200.715 17.665H200.752H200.695H201.175V17.7275H201.113C201.175 17.6292 201.077 17.6694 201.113 17.6605H201.237L201.392 17.6918C201.449 17.701 201.504 17.7145 201.558 17.732L201.645 17.7543C201.614 17.866 201.609 17.8213 201.604 17.8303H201.558L201.599 17.7543C201.687 17.7885 201.772 17.8289 201.852 17.8749L201.992 17.9419L202.064 17.9822V18.0179L202.023 17.9911L202.1 17.9196L202.265 18.0492C202.265 18.076 202.322 18.0983 202.353 18.1251L202.389 18.1653C202.389 18.1653 202.364 18.1653 202.353 18.1653C202.353 18.1653 202.353 18.1653 202.353 18.1877V18.1653L202.457 18.1028L202.586 18.277L202.648 18.3753C202.648 18.3753 202.684 18.4021 202.648 18.4245L202.612 18.4513H202.565V18.42L202.689 18.3798C202.736 18.4848 202.776 18.5922 202.808 18.7014V18.7729H202.767C202.767 18.7729 202.741 18.7729 202.736 18.7729C202.73 18.7708 202.724 18.7698 202.717 18.7698C202.711 18.7698 202.705 18.7708 202.699 18.7729H202.668H202.71H202.736H202.767H202.813V18.8042C202.818 18.8637 202.818 18.9234 202.813 18.9829C202.818 19.0454 202.818 19.1081 202.813 19.1705C202.816 19.1868 202.816 19.2034 202.813 19.2197C202.813 19.2197 202.813 19.2197 202.756 19.2197H202.663V19.1884C202.663 19.1884 202.663 19.1884 202.689 19.1884C202.715 19.1884 202.741 19.1884 202.736 19.1884H202.813V19.2331C202.813 19.2956 202.777 19.3627 202.761 19.4252C202.746 19.4877 202.761 19.4922 202.725 19.519V19.5637C202.519 19.4922 202.596 19.5101 202.586 19.4967L202.736 19.5548C202.653 19.6754 202.586 19.8094 202.482 19.9345L202.343 19.8496L202.384 19.8094H202.415C202.415 19.8094 202.446 19.8094 202.457 19.8452C202.467 19.8809 202.457 19.8451 202.457 19.8675V19.8943L202.374 19.9658C202.322 20.0164 202.265 20.0627 202.203 20.1043C202.167 20.0775 202.162 20.0551 202.152 20.0596C202.141 20.0641 202.152 20.0596 202.152 20.0373L202.121 19.9971C202.121 19.9971 202.152 20.0239 202.121 20.0283C202.09 20.0328 202.121 20.0685 202.147 20.0685C202.147 20.0462 202.172 20.0685 202.147 20.0685C202.146 20.0784 202.149 20.0881 202.156 20.0962C202.162 20.1043 202.172 20.1103 202.183 20.1132H202.157L202.054 20.1713L201.842 20.2696L201.759 20.1311H201.795H201.862C201.935 20.1311 201.95 20.2964 201.909 20.2606H201.883L201.8 20.2874L201.635 20.3276L201.475 20.3634H201.392C201.392 20.3634 201.392 20.3991 201.361 20.2964C201.361 20.2964 201.361 20.2026 201.361 20.2115H201.237V20.3679C201.131 20.3747 201.024 20.3747 200.917 20.3679C200.86 20.3723 200.803 20.3723 200.746 20.3679H200.721C200.718 20.3426 200.718 20.3172 200.721 20.2919C200.723 20.2681 200.723 20.2442 200.721 20.2204H200.783C200.784 20.2338 200.784 20.2473 200.783 20.2606C200.783 20.2606 200.783 20.2606 200.783 20.2874C200.783 20.2874 200.783 20.3098 200.783 20.3232C200.785 20.3365 200.785 20.3501 200.783 20.3634C200.672 20.347 200.563 20.3231 200.457 20.2919L200.374 20.2696H200.328V20.2383C200.329 20.2234 200.329 20.2085 200.328 20.1936C200.4 20.073 200.364 20.1266 200.374 20.1132H200.411C200.411 20.1132 200.411 20.1132 200.411 20.1355C200.411 20.1579 200.411 20.1892 200.411 20.1981L200.364 20.2651H200.328H200.204C200.204 20.2651 200.204 20.2651 200.261 20.2651C200.275 20.2625 200.289 20.2571 200.3 20.2494C200.312 20.2416 200.321 20.2317 200.328 20.2204C200.328 20.2204 200.328 20.2204 200.256 20.2204L200.188 20.2964C200.061 20.236 199.913 20.2138 199.77 20.2332C199.626 20.2526 199.493 20.3125 199.393 20.4036C199.3 20.5071 199.249 20.6344 199.249 20.7655C199.249 20.8965 199.3 21.0239 199.393 21.1274C199.515 21.2189 199.657 21.2888 199.811 21.3329C199.98 21.3839 200.153 21.4257 200.328 21.458C200.678 21.5205 201.038 21.5296 201.392 21.4848C201.788 21.4426 202.17 21.33 202.513 21.1539C202.857 20.9778 203.154 20.7421 203.387 20.4617C203.814 19.9252 203.997 19.2716 203.903 18.6255C203.827 18.0405 203.505 17.5 202.999 17.1065C202.568 16.7587 202.03 16.5273 201.449 16.4408C200.97 16.3619 200.475 16.3975 200.018 16.5436C199.935 16.5849 199.862 16.6402 199.805 16.7062C199.747 16.7722 199.705 16.8475 199.682 16.9278C199.647 17.0649 199.673 17.2085 199.754 17.3299C199.809 17.417 199.886 17.4916 199.981 17.5476C200.075 17.6035 200.183 17.6392 200.297 17.6516C200.367 17.7304 200.446 17.8024 200.535 17.866Z" fill="#263238"/>
<path d="M185.52 42.7997H170.811V47.8124H185.52V42.7997Z" fill="#EBEBEB"/>
<path d="M216.391 41.942H170.201V42.9919H216.391V41.942Z" fill="#455A64"/>
<path d="M216.391 47.589H170.413V48.6389H216.391V47.589Z" fill="#455A64"/>
<path d="M185.52 42.1922L185.587 48.4379H216.391V42.1922H185.52Z" fill="#455A64"/>
<path d="M193.007 45.3061C192.982 45.5857 192.863 45.8529 192.665 46.0751C192.467 46.2973 192.199 46.4647 191.892 46.557C191.586 46.6493 191.255 46.6624 190.94 46.5948C190.626 46.5271 190.341 46.3816 190.12 46.1761C189.899 45.9705 189.753 45.7138 189.698 45.4373C189.643 45.1609 189.683 44.8766 189.812 44.6194C189.942 44.3622 190.155 44.1431 190.426 43.9889C190.697 43.8347 191.014 43.7522 191.338 43.7513C191.797 43.7676 192.23 43.9402 192.543 44.2314C192.855 44.5227 193.022 44.9089 193.007 45.3061Z" fill="#263238"/>
<path d="M191.338 47.0842C190.924 47.1084 190.512 47.0245 190.154 46.8434C189.797 46.6623 189.51 46.3924 189.332 46.0688C189.154 45.7451 189.093 45.3826 189.156 45.0284C189.219 44.6742 189.404 44.3446 189.687 44.0825C189.97 43.8204 190.337 43.6378 190.741 43.5585C191.145 43.4792 191.568 43.5068 191.954 43.6378C192.34 43.7688 192.671 43.997 192.905 44.2929C193.139 44.5889 193.264 44.9387 193.265 45.2972C193.275 45.524 193.233 45.7503 193.141 45.963C193.049 46.1757 192.91 46.3707 192.731 46.5367C192.552 46.7028 192.337 46.8366 192.098 46.9305C191.859 47.0245 191.6 47.0767 191.338 47.0842ZM191.338 43.9569C191.027 43.9326 190.715 43.9901 190.442 44.1218C190.17 44.2535 189.95 44.4534 189.811 44.6951C189.672 44.9369 189.62 45.2094 189.663 45.4768C189.706 45.7442 189.842 45.9941 190.052 46.1938C190.262 46.3935 190.537 46.5336 190.841 46.5959C191.145 46.6581 191.463 46.6396 191.755 46.5427C192.046 46.4458 192.297 46.275 192.474 46.0528C192.652 45.8305 192.747 45.5671 192.749 45.2972C192.763 44.9605 192.622 44.6326 192.358 44.3849C192.094 44.1373 191.727 43.9898 191.338 43.9747V43.9569Z" fill="#E0E0E0"/>
<path d="M184.415 46.5838C184.415 46.6464 181.392 46.7 177.667 46.7C173.942 46.7 170.914 46.6464 170.914 46.5838C170.914 46.5213 173.937 46.4677 177.667 46.4677C181.397 46.4677 184.415 46.5079 184.415 46.5838Z" fill="#263238"/>
<path d="M184.415 45.7081C184.415 45.7751 181.392 45.8243 177.667 45.8243C173.942 45.8243 170.914 45.7751 170.914 45.7081C170.914 45.6411 173.937 45.5919 177.667 45.5919C181.397 45.5919 184.415 45.6456 184.415 45.7081Z" fill="#263238"/>
<path d="M184.415 44.837C184.415 44.8996 181.392 44.9532 177.667 44.9532C173.942 44.9532 170.914 44.8996 170.914 44.837C170.914 44.7745 173.937 44.7209 177.667 44.7209C181.397 44.7209 184.415 44.7745 184.415 44.837Z" fill="#263238"/>
<path d="M184.415 43.9658C184.415 44.0283 181.392 44.0819 177.667 44.0819C173.942 44.0819 170.914 44.0283 170.914 43.9658C170.914 43.9032 173.937 43.8496 177.667 43.8496C181.397 43.8496 184.415 43.8988 184.415 43.9658Z" fill="#263238"/>
<path d="M212.971 43.519H199.093V46.8608H212.971V43.519Z" fill="white"/>
<path d="M201.237 46.5078C201.056 45.6212 201.056 44.7139 201.237 43.8273C201.419 44.7139 201.419 45.6212 201.237 46.5078Z" fill="#E0E0E0"/>
<path d="M203.092 46.5078C202.911 45.6212 202.911 44.7139 203.092 43.8273C203.274 44.7139 203.274 45.6212 203.092 46.5078Z" fill="#E0E0E0"/>
<path d="M204.926 46.5078C204.745 45.6212 204.745 44.7139 204.926 43.8273C205.108 44.7139 205.108 45.6212 204.926 46.5078Z" fill="#E0E0E0"/>
<path d="M206.761 46.5078C206.579 45.6212 206.579 44.7139 206.761 43.8273C206.942 44.7139 206.942 45.6212 206.761 46.5078Z" fill="#E0E0E0"/>
<path d="M208.595 46.5078C208.413 45.6212 208.413 44.7139 208.595 43.8273C208.776 44.7139 208.776 45.6212 208.595 46.5078Z" fill="#E0E0E0"/>
<path d="M210.434 46.5078C210.253 45.6212 210.253 44.7139 210.434 43.8273C210.616 44.7139 210.616 45.6212 210.434 46.5078Z" fill="#E0E0E0"/>
<path d="M185.737 48.621C185.604 47.52 185.559 46.4124 185.603 45.3061C185.56 44.1982 185.604 43.0891 185.737 41.9866C185.87 43.0891 185.915 44.1982 185.872 45.3061C185.915 46.4124 185.87 47.52 185.737 48.621Z" fill="#263238"/>
<path d="M213.617 56.8995V55.2554L173.859 55.3269H171.56V56.9218H173.859V66.764H216.799V56.8995H213.617Z" fill="#F5F5F5"/>
<path d="M203.867 66.764V55.2554H213.617V56.8995H216.8V66.764H203.867Z" fill="#EBEBEB"/>
<path d="M213.637 55.2554C213.637 55.3225 204.301 55.3716 192.79 55.3716C181.278 55.3716 171.942 55.3225 171.942 55.2554C171.942 55.1884 181.273 55.1393 192.79 55.1393C204.306 55.1393 213.637 55.1929 213.637 55.2554Z" fill="#E0E0E0"/>
<path d="M216.479 60.4244C216.479 60.4915 206.972 60.5406 195.249 60.5406C183.526 60.5406 174.019 60.4915 174.019 60.4244C174.019 60.3574 183.521 60.3083 195.249 60.3083C206.978 60.3083 216.479 60.3574 216.479 60.4244Z" fill="#E0E0E0"/>
<path d="M216.799 63.9315C216.799 63.9985 207.22 64.0477 195.409 64.0477C183.598 64.0477 174.019 63.9985 174.019 63.9315C174.019 63.8645 183.593 63.8154 195.409 63.8154C207.226 63.8154 216.799 63.8869 216.799 63.9315Z" fill="#E0E0E0"/>
<path d="M171.922 56.8995C171.922 56.8369 181.258 56.7833 192.769 56.7833C204.281 56.7833 213.617 56.8369 213.617 56.8995C213.617 56.962 204.286 57.0156 192.769 57.0156C181.253 57.0156 171.922 56.9665 171.922 56.8995Z" fill="#E0E0E0"/>
<path d="M214.826 25.2644V23.6292L175.347 23.7007H173.063V25.2867H175.347V35.0574H217.983V25.2644H214.826Z" fill="#F5F5F5"/>
<path d="M205.143 35.0574V23.6292H214.826V25.2644H217.983V35.0574H205.143Z" fill="#EBEBEB"/>
<path d="M214.826 23.6293C214.826 23.6963 205.557 23.7499 194.123 23.7499C182.689 23.7499 173.425 23.6963 173.425 23.6293C173.425 23.5623 182.689 23.5131 194.123 23.5131C205.557 23.5131 214.826 23.5667 214.826 23.6293Z" fill="#E0E0E0"/>
<path d="M217.667 28.7625C217.667 28.8295 208.228 28.8786 196.587 28.8786C184.947 28.8786 175.507 28.8295 175.507 28.7625C175.507 28.6955 184.942 28.6374 196.587 28.6374C208.233 28.6374 217.667 28.6999 217.667 28.7625Z" fill="#E0E0E0"/>
<path d="M217.983 32.2651C217.983 32.3276 208.471 32.3812 196.742 32.3812C185.014 32.3812 175.507 32.3276 175.507 32.2651C175.507 32.2025 185.014 32.1489 196.742 32.1489C208.471 32.1489 217.983 32.2115 217.983 32.2651Z" fill="#E0E0E0"/>
<path d="M173.425 25.2644C173.425 25.1974 182.689 25.1482 194.123 25.1482C205.557 25.1482 214.826 25.1974 214.826 25.2644C214.826 25.3314 205.557 25.3805 194.123 25.3805C182.689 25.3805 173.425 25.3269 173.425 25.2644Z" fill="#E0E0E0"/>
<path d="M187.473 49.3135H172.764V54.3262H187.473V49.3135Z" fill="#EBEBEB"/>
<path d="M218.344 48.4513H172.154V49.5012H218.344V48.4513Z" fill="#FFAC1C"/>
<path d="M218.344 54.0983H172.366V55.1482H218.344V54.0983Z" fill="#FFAC1C"/>
<path d="M187.473 48.7014L187.54 54.9516H218.344V48.7014H187.473Z" fill="#FFAC1C"/>
<path d="M194.96 51.8199C194.935 52.0997 194.816 52.3671 194.618 52.5893C194.419 52.8116 194.151 52.979 193.844 53.0712C193.537 53.1634 193.206 53.1762 192.891 53.1082C192.577 53.0402 192.291 52.8942 192.071 52.6882C191.851 52.4822 191.704 52.2251 191.65 51.9484C191.596 51.6716 191.637 51.3873 191.767 51.1301C191.897 50.873 192.111 50.6542 192.382 50.5006C192.654 50.3469 192.972 50.2651 193.296 50.2651C193.755 50.2814 194.187 50.4541 194.499 50.7455C194.811 51.0369 194.977 51.4232 194.96 51.8199Z" fill="#263238"/>
<path d="M193.296 53.598C192.882 53.6231 192.47 53.54 192.111 53.3595C191.753 53.179 191.466 52.9095 191.287 52.5859C191.108 52.2624 191.046 51.8998 191.108 51.5453C191.171 51.1909 191.356 50.8609 191.638 50.5983C191.921 50.3357 192.288 50.1527 192.692 50.073C193.096 49.9933 193.519 50.0206 193.905 50.1514C194.291 50.2822 194.623 50.5104 194.857 50.8063C195.091 51.1023 195.217 51.4523 195.218 51.8109C195.236 52.268 195.044 52.7128 194.684 53.0477C194.324 53.3826 193.825 53.5805 193.296 53.598ZM193.296 50.4706C192.985 50.4454 192.672 50.5021 192.399 50.6332C192.126 50.7643 191.905 50.9638 191.765 51.2054C191.625 51.447 191.573 51.7195 191.616 51.9872C191.658 52.2549 191.793 52.5052 192.003 52.7053C192.213 52.9055 192.488 53.0461 192.792 53.1088C193.096 53.1715 193.415 53.1533 193.706 53.0566C193.998 52.9598 194.249 52.7892 194.427 52.5669C194.604 52.3446 194.7 52.0811 194.701 51.8109C194.714 51.4753 194.574 51.1487 194.311 50.9014C194.048 50.6541 193.684 50.5059 193.296 50.4885V50.4706Z" fill="#E0E0E0"/>
<path d="M186.368 53.0931C186.368 53.1601 183.345 53.2137 179.62 53.2137C175.895 53.2137 172.867 53.1601 172.867 53.0931C172.867 53.0261 175.89 52.9769 179.62 52.9769C183.35 52.9769 186.368 53.0305 186.368 53.0931Z" fill="#263238"/>
<path d="M186.368 52.2219C186.368 52.2844 183.345 52.3381 179.62 52.3381C175.895 52.3381 172.867 52.2844 172.867 52.2219C172.867 52.1594 175.89 52.1057 179.62 52.1057C183.35 52.1057 186.368 52.1594 186.368 52.2219Z" fill="#263238"/>
<path d="M186.368 51.3507C186.368 51.4133 183.345 51.4669 179.62 51.4669C175.895 51.4669 172.867 51.4133 172.867 51.3507C172.867 51.2882 175.89 51.2346 179.62 51.2346C183.35 51.2346 186.368 51.2837 186.368 51.3507Z" fill="#263238"/>
<path d="M186.368 50.4751C186.368 50.5421 183.345 50.5912 179.62 50.5912C175.895 50.5912 172.867 50.5421 172.867 50.4751C172.867 50.4081 175.89 50.3589 179.62 50.3589C183.35 50.3589 186.368 50.4125 186.368 50.4751Z" fill="#263238"/>
<path d="M214.924 50.0328H201.046V53.3746H214.924V50.0328Z" fill="white"/>
<path d="M203.211 53.035C203.03 52.1484 203.03 51.2411 203.211 50.3545C203.393 51.2411 203.393 52.1484 203.211 53.035Z" fill="#E0E0E0"/>
<path d="M205.045 53.035C204.864 52.1484 204.864 51.2411 205.045 50.3545C205.227 51.2411 205.227 52.1484 205.045 53.035Z" fill="#E0E0E0"/>
<path d="M206.879 53.035C206.698 52.1484 206.698 51.2411 206.879 50.3545C207.061 51.2411 207.061 52.1484 206.879 53.035Z" fill="#E0E0E0"/>
<path d="M208.714 53.035C208.532 52.1484 208.532 51.2411 208.714 50.3545C208.895 51.2411 208.895 52.1484 208.714 53.035Z" fill="#E0E0E0"/>
<path d="M210.537 53.035C210.356 52.1484 210.356 51.2411 210.537 50.3545C210.719 51.2411 210.719 52.1484 210.537 53.035Z" fill="#E0E0E0"/>
<path d="M212.387 53.035C212.206 52.1484 212.206 51.2411 212.387 50.3545C212.569 51.2411 212.569 52.1484 212.387 53.035Z" fill="#E0E0E0"/>
<path d="M187.68 55.1348C187.547 54.0338 187.502 52.9262 187.546 51.8199C187.502 50.712 187.547 49.6029 187.68 48.5004C187.816 49.6027 187.861 50.712 187.814 51.8199C187.861 52.9262 187.816 54.034 187.68 55.1348Z" fill="#263238"/>
<path d="M187.473 36.1028H172.764V41.1154H187.473V36.1028Z" fill="#EBEBEB"/>
<path d="M218.344 35.2406H172.154V36.2905H218.344V35.2406Z" fill="#FFAC1C"/>
<path d="M218.344 40.8876H172.366V41.9375H218.344V40.8876Z" fill="#FFAC1C"/>
<path d="M187.473 35.4907L187.54 41.7364H218.344V35.4907H187.473Z" fill="#FFAC1C"/>
<path d="M194.96 38.6091C194.935 38.889 194.816 39.1564 194.618 39.3786C194.419 39.6009 194.151 39.7683 193.844 39.8605C193.537 39.9526 193.206 39.9655 192.891 39.8975C192.577 39.8294 192.291 39.6835 192.071 39.4775C191.851 39.2715 191.704 39.0144 191.65 38.7377C191.596 38.4609 191.637 38.1766 191.767 37.9194C191.897 37.6623 192.111 37.4435 192.382 37.2898C192.654 37.1362 192.972 37.0544 193.296 37.0544C193.755 37.0707 194.187 37.2434 194.499 37.5348C194.811 37.8261 194.977 38.2124 194.96 38.6091Z" fill="#263238"/>
<path d="M193.296 40.3872C192.882 40.4123 192.47 40.3292 192.111 40.1488C191.753 39.9683 191.466 39.6987 191.287 39.3752C191.108 39.0517 191.046 38.6891 191.108 38.3346C191.171 37.9801 191.356 37.6502 191.638 37.3876C191.921 37.125 192.288 36.942 192.692 36.8622C193.096 36.7825 193.519 36.8099 193.905 36.9406C194.291 37.0714 194.623 37.2996 194.857 37.5956C195.091 37.8916 195.217 38.2416 195.218 38.6002C195.236 39.0573 195.044 39.502 194.684 39.837C194.324 40.1719 193.825 40.3698 193.296 40.3872ZM193.296 37.2599C192.985 37.2347 192.672 37.2914 192.399 37.4225C192.126 37.5536 191.905 37.753 191.765 37.9947C191.625 38.2363 191.573 38.5088 191.616 38.7765C191.658 39.0441 191.793 39.2944 192.003 39.4946C192.213 39.6947 192.488 39.8354 192.792 39.8981C193.096 39.9607 193.415 39.9425 193.706 39.8458C193.998 39.7491 194.249 39.5784 194.427 39.3562C194.604 39.1339 194.7 38.8704 194.701 38.6002C194.714 38.2645 194.574 37.938 194.311 37.6907C194.048 37.4434 193.684 37.2952 193.296 37.2778V37.2599Z" fill="#E0E0E0"/>
<path d="M186.368 39.8824C186.368 39.9494 183.345 39.9985 179.62 39.9985C175.895 39.9985 172.867 39.9494 172.867 39.8824C172.867 39.8154 175.89 39.7662 179.62 39.7662C183.35 39.7662 186.368 39.8064 186.368 39.8824Z" fill="#263238"/>
<path d="M186.368 39.0112C186.368 39.0738 183.345 39.1274 179.62 39.1274C175.895 39.1274 172.867 39.0738 172.867 39.0112C172.867 38.9487 175.89 38.8951 179.62 38.8951C183.35 38.8951 186.368 38.9487 186.368 39.0112Z" fill="#263238"/>
<path d="M186.368 38.14C186.368 38.2026 183.345 38.2562 179.62 38.2562C175.895 38.2562 172.867 38.2026 172.867 38.14C172.867 38.0775 175.89 38.0239 179.62 38.0239C183.35 38.0239 186.368 38.073 186.368 38.14Z" fill="#263238"/>
<path d="M186.368 37.2644C186.368 37.3314 183.345 37.3805 179.62 37.3805C175.895 37.3805 172.867 37.3314 172.867 37.2644C172.867 37.1974 175.89 37.1482 179.62 37.1482C183.35 37.1482 186.368 37.2018 186.368 37.2644Z" fill="#263238"/>
<path d="M214.924 36.8176H201.046V40.1594H214.924V36.8176Z" fill="white"/>
<path d="M203.211 39.8064C203.03 38.9198 203.03 38.0126 203.211 37.1259C203.392 38.0126 203.392 38.9198 203.211 39.8064Z" fill="#E0E0E0"/>
<path d="M205.045 39.8064C204.864 38.9198 204.864 38.0126 205.045 37.1259C205.226 38.0126 205.226 38.9198 205.045 39.8064Z" fill="#E0E0E0"/>
<path d="M206.879 39.8064C206.699 38.9198 206.699 38.0126 206.879 37.1259C207.06 38.0126 207.06 38.9198 206.879 39.8064Z" fill="#E0E0E0"/>
<path d="M208.714 39.8064C208.533 38.9198 208.533 38.0126 208.714 37.1259C208.894 38.0126 208.894 38.9198 208.714 39.8064Z" fill="#E0E0E0"/>
<path d="M210.537 39.8064C210.356 38.9198 210.356 38.0126 210.537 37.1259C210.718 38.0126 210.718 38.9198 210.537 39.8064Z" fill="#E0E0E0"/>
<path d="M212.387 39.8064C212.206 38.9198 212.206 38.0126 212.387 37.1259C212.568 38.0126 212.568 38.9198 212.387 39.8064Z" fill="#E0E0E0"/>
<path d="M187.68 41.9241C187.547 40.8231 187.502 39.7155 187.546 38.6092C187.502 37.5013 187.547 36.3922 187.68 35.2897C187.816 36.392 187.861 37.5013 187.814 38.6092C187.861 39.7155 187.816 40.8233 187.68 41.9241Z" fill="#263238"/>
<path d="M44.3767 41.8347H75.8418C76.8751 41.8347 77.8775 42.3038 78.0376 43.2689L82.2278 65.4907H98.7612C99.0394 65.4907 99.3062 65.5863 99.5028 65.7563C99.6995 65.9264 99.81 66.1571 99.81 66.3976C99.81 66.6382 99.6995 66.8689 99.5028 67.0389C99.3062 67.209 99.0394 67.3046 98.7612 67.3046H45.906L42.2893 44.1088C42.2331 43.8384 42.2442 43.5609 42.3217 43.2945C42.3992 43.0282 42.5415 42.7792 42.7389 42.564C42.9364 42.3489 43.1846 42.1726 43.467 42.0469C43.7493 41.9211 44.0594 41.8488 44.3767 41.8347Z" fill="#E0E0E0"/>
<path d="M44.3763 41.8348C44.1928 41.8428 44.0109 41.8683 43.8338 41.9107C43.3197 42.0486 42.8856 42.3505 42.6197 42.7551C42.419 43.048 42.3071 43.3799 42.2942 43.7201C42.2908 43.9178 42.3098 44.1153 42.351 44.3098C42.382 44.5109 42.413 44.7253 42.4492 44.9487L42.9297 47.9956C43.653 52.5838 44.6915 59.1959 45.9625 67.2957L45.9108 67.2555H97.03H98.7815C98.9478 67.2549 99.1102 67.2123 99.2489 67.1329C99.3875 67.0535 99.4962 66.9408 99.5617 66.8087C99.6649 66.6423 99.7044 66.452 99.6747 66.265C99.645 66.078 99.5476 65.9039 99.3964 65.7677C99.2477 65.6323 99.0438 65.5522 98.828 65.5444H82.1706V65.4952C80.7705 58.0388 79.4581 51.0827 78.2853 44.8459C78.213 44.4528 78.1406 44.0686 78.0683 43.6844C78.0321 43.4923 77.996 43.2957 77.9546 43.1125C77.9035 42.9303 77.8142 42.7577 77.6911 42.6032C77.4365 42.3023 77.0727 42.0837 76.6578 41.9822C76.4551 41.9258 76.2451 41.8913 76.0326 41.8795C75.8208 41.8795 75.6038 41.8795 75.3868 41.8795C75.6038 41.8795 75.8156 41.8795 76.0378 41.8795C76.2607 41.8894 76.4812 41.9239 76.694 41.9822C77.1326 42.0886 77.5168 42.32 77.7841 42.6389C77.9124 42.8039 78.0068 42.9868 78.0631 43.1795C78.1096 43.3761 78.1406 43.5637 78.1768 43.7558C78.2491 44.1401 78.3215 44.5287 78.399 44.9174C79.577 51.1721 80.8945 58.1147 82.2998 65.5667L82.2378 65.5176H98.8384C99.0899 65.5284 99.3268 65.6228 99.4997 65.7812C99.67 65.9359 99.7799 66.1328 99.8142 66.3443C99.8485 66.5559 99.8054 66.7713 99.6909 66.9606C99.5854 67.1578 99.4023 67.3161 99.1742 67.4074C99.0574 67.4473 98.933 67.4685 98.8074 67.4699H97.0249H45.9057H45.8592V67.4297C44.6037 59.3255 43.5807 52.7134 42.8728 48.1252C42.6972 46.9785 42.5404 45.9614 42.4027 45.0738C42.3717 44.8504 42.3355 44.627 42.3045 44.4349C42.2664 44.2387 42.2508 44.0396 42.258 43.8407C42.2737 43.4955 42.3891 43.1591 42.5938 42.8623C42.8651 42.4526 43.3096 42.1499 43.8338 42.018C43.9661 41.9823 44.1035 41.9627 44.242 41.9599L44.3763 41.8348Z" fill="#263238"/>
<path d="M63.4675 55.1661C63.4675 55.5399 63.3394 55.9053 63.0992 56.2161C62.8591 56.5268 62.5177 56.7691 62.1184 56.9121C61.719 57.0551 61.2796 57.0925 60.8557 57.0196C60.4317 56.9467 60.0423 56.7667 59.7366 56.5024C59.431 56.2381 59.2229 55.9014 59.1385 55.5348C59.0542 55.1682 59.0975 54.7883 59.2629 54.4429C59.4283 54.0976 59.7084 53.8025 60.0678 53.5948C60.4272 53.3872 60.8498 53.2763 61.282 53.2763C61.5692 53.2758 61.8537 53.3242 62.1192 53.419C62.3847 53.5138 62.6259 53.6529 62.8289 53.8285C63.032 54.0041 63.193 54.2127 63.3026 54.4423C63.4122 54.6718 63.4682 54.9178 63.4675 55.1661Z" fill="white"/>
<path d="M80.621 67.0588C80.5745 67.0588 79.4636 61.4699 78.141 54.5495C76.8183 47.6292 75.7953 42.0403 75.8418 42.0403C75.8883 42.0403 76.9991 47.6292 78.3218 54.5495C79.6445 61.4699 80.6726 67.0588 80.621 67.0588Z" fill="#263238"/>
<path d="M62.2224 129.686L61.5249 140.774C61.5131 140.965 61.4179 141.144 61.2586 141.276C61.0993 141.408 60.8878 141.483 60.6673 141.485L37.5773 141.632C37.4633 141.633 37.3503 141.614 37.2448 141.577C37.1392 141.539 37.0431 141.485 36.9621 141.415C36.881 141.346 36.8165 141.264 36.7722 141.173C36.728 141.082 36.7048 140.985 36.7042 140.886L36.6318 132.25C36.6305 132.151 36.6518 132.053 36.6945 131.962C36.7373 131.87 36.8006 131.787 36.8809 131.717C36.9611 131.647 37.0567 131.591 37.1621 131.553C37.2674 131.515 37.3805 131.495 37.4947 131.495H51.6979C51.8113 131.496 51.9237 131.477 52.0284 131.439C52.1331 131.401 52.2281 131.346 52.3076 131.276L54.7566 129.159C54.9191 129.02 55.1378 128.941 55.3662 128.94L61.3544 128.904C61.4717 128.903 61.588 128.923 61.6961 128.963C61.8041 129.002 61.9018 129.06 61.983 129.133C62.0643 129.206 62.1274 129.293 62.1686 129.388C62.2097 129.483 62.2281 129.584 62.2224 129.686Z" fill="#FFAC1C"/>
<path d="M36.7236 143.234L61.9519 143.074L61.8414 130.038L36.6131 130.198L36.7236 143.234Z" fill="#F5F5F5"/>
<path d="M63.8603 131.196L62.0467 144.795C62.0376 144.916 61.9761 145.029 61.8745 145.112C61.7729 145.195 61.6387 145.241 61.4991 145.242L36.9366 145.385C36.7955 145.385 36.6595 145.339 36.556 145.256C36.4525 145.174 36.3891 145.06 36.3786 144.938L35.025 131.352C35.0178 131.286 35.0266 131.219 35.0508 131.157C35.0751 131.094 35.1142 131.036 35.1657 130.987C35.2172 130.937 35.28 130.898 35.3501 130.871C35.4201 130.844 35.4959 130.83 35.5726 130.829L63.3281 130.655C63.4052 130.658 63.4808 130.674 63.5502 130.703C63.6196 130.732 63.6812 130.774 63.7313 130.825C63.7813 130.875 63.8186 130.935 63.8408 130.998C63.863 131.062 63.8696 131.13 63.8603 131.196Z" fill="#FFAC1C"/>
<path d="M69.0166 127.595L68.3191 138.692C68.3072 138.882 68.2118 139.061 68.0524 139.193C67.8929 139.324 67.6815 139.397 67.4614 139.398L44.3715 139.546C44.2573 139.547 44.144 139.528 44.0381 139.492C43.9322 139.455 43.8359 139.4 43.7547 139.33C43.6734 139.261 43.609 139.178 43.565 139.087C43.521 138.996 43.4983 138.898 43.4983 138.8L43.4208 130.164C43.4208 129.964 43.5121 129.773 43.6747 129.631C43.8374 129.49 44.0581 129.41 44.2888 129.409H58.492C58.7207 129.408 58.9397 129.329 59.1017 129.19L61.5507 127.072C61.7127 126.933 61.9317 126.854 62.1604 126.853L68.1434 126.813C68.2609 126.812 68.3774 126.832 68.4858 126.872C68.5941 126.911 68.6921 126.969 68.7737 127.042C68.8554 127.115 68.919 127.202 68.9607 127.297C69.0025 127.392 69.0215 127.493 69.0166 127.595Z" fill="#FFAC1C"/>
<g opacity="0.3">
<path d="M69.0166 127.595L68.3191 138.692C68.3072 138.882 68.2118 139.061 68.0524 139.193C67.8929 139.324 67.6815 139.397 67.4614 139.398L44.3715 139.546C44.2573 139.547 44.144 139.528 44.0381 139.492C43.9322 139.455 43.8359 139.4 43.7547 139.33C43.6734 139.261 43.609 139.178 43.565 139.087C43.521 138.996 43.4983 138.898 43.4983 138.8L43.4208 130.164C43.4208 129.964 43.5121 129.773 43.6747 129.631C43.8374 129.49 44.0581 129.41 44.2888 129.409H58.492C58.7207 129.408 58.9397 129.329 59.1017 129.19L61.5507 127.072C61.7127 126.933 61.9317 126.854 62.1604 126.853L68.1434 126.813C68.2609 126.812 68.3774 126.832 68.4858 126.872C68.5941 126.911 68.6921 126.969 68.7737 127.042C68.8554 127.115 68.919 127.202 68.9607 127.297C69.0025 127.392 69.0215 127.493 69.0166 127.595Z" fill="black"/>
</g>
<path d="M43.5151 141.142L68.7434 140.982L68.6329 127.945L43.4046 128.105L43.5151 141.142Z" fill="#F5F5F5"/>
<path d="M70.6544 129.1L68.8409 142.709C68.8257 142.825 68.7615 142.933 68.6605 143.011C68.5595 143.089 68.4288 143.133 68.2932 143.133L43.705 143.29C43.5632 143.292 43.4258 143.247 43.3217 143.164C43.2176 143.08 43.155 142.965 43.147 142.843L41.7933 129.266C41.7862 129.2 41.795 129.133 41.8191 129.07C41.8433 129.006 41.8823 128.948 41.9338 128.899C41.9852 128.849 42.048 128.809 42.118 128.782C42.1881 128.754 42.264 128.74 42.341 128.739L70.0964 128.564C70.1752 128.564 70.2532 128.578 70.3253 128.606C70.3974 128.633 70.4619 128.673 70.5146 128.724C70.5673 128.775 70.6071 128.834 70.6311 128.899C70.6552 128.964 70.6632 129.033 70.6544 129.1Z" fill="#FFAC1C"/>
<g opacity="0.3">
<path d="M70.6544 129.1L68.8409 142.709C68.8257 142.825 68.7615 142.933 68.6605 143.011C68.5595 143.089 68.4288 143.133 68.2932 143.133L43.705 143.29C43.5632 143.292 43.4258 143.247 43.3217 143.164C43.2176 143.08 43.155 142.965 43.147 142.843L41.7933 129.266C41.7862 129.2 41.795 129.133 41.8191 129.07C41.8433 129.006 41.8823 128.948 41.9338 128.899C41.9852 128.849 42.048 128.809 42.118 128.782C42.1881 128.754 42.264 128.74 42.341 128.739L70.0964 128.564C70.1752 128.564 70.2532 128.578 70.3253 128.606C70.3974 128.633 70.4619 128.673 70.5146 128.724C70.5673 128.775 70.6071 128.834 70.6311 128.899C70.6552 128.964 70.6632 129.033 70.6544 129.1Z" fill="black"/>
</g>
<path d="M76.6736 130.191L75.9761 141.288C75.9643 141.479 75.869 141.658 75.7097 141.79C75.5504 141.922 75.339 141.996 75.1184 141.998L52.0233 142.146C51.7935 142.146 51.573 142.068 51.4095 141.928C51.2461 141.788 51.1529 141.599 51.1502 141.4L51.0778 132.764C51.0778 132.564 51.1691 132.373 51.3317 132.232C51.4944 132.09 51.7151 132.01 51.9458 132.009H66.149C66.2624 132.01 66.3748 131.991 66.4796 131.953C66.5843 131.915 66.6792 131.86 66.7587 131.79L69.2077 129.672C69.3697 129.533 69.5888 129.454 69.8174 129.453L75.8004 129.418C75.9172 129.416 76.0332 129.436 76.1411 129.474C76.2491 129.513 76.3469 129.57 76.4285 129.642C76.5102 129.715 76.574 129.8 76.6161 129.895C76.6582 129.989 76.6778 130.09 76.6736 130.191Z" fill="#FFAC1C"/>
<path d="M51.171 143.737L76.3992 143.577L76.2887 130.541L51.0605 130.701L51.171 143.737Z" fill="#F5F5F5"/>
<path d="M78.3115 131.701L76.498 145.309C76.4888 145.429 76.4273 145.542 76.3257 145.625C76.2241 145.708 76.09 145.755 75.9503 145.756L51.362 145.912C51.2204 145.912 51.0838 145.867 50.9794 145.784C50.875 145.701 50.8106 145.587 50.7989 145.465L49.4504 131.879C49.4432 131.813 49.452 131.747 49.4762 131.684C49.5004 131.621 49.5396 131.563 49.5911 131.514C49.6426 131.464 49.7054 131.425 49.7754 131.398C49.8455 131.371 49.9213 131.357 49.998 131.357L77.7535 131.182C77.8304 131.182 77.9065 131.196 77.977 131.222C78.0475 131.249 78.111 131.287 78.1634 131.336C78.2158 131.385 78.256 131.442 78.2815 131.505C78.307 131.568 78.3172 131.634 78.3115 131.701Z" fill="#FFAC1C"/>
<path d="M49.4451 133.55V152.426H80.9619V133.55H49.4451ZM59.7268 136.946C59.7268 136.763 59.7685 136.581 59.8495 136.412C59.9306 136.243 60.0493 136.089 60.199 135.96C60.3487 135.831 60.5264 135.728 60.722 135.658C60.9175 135.588 61.1272 135.552 61.3388 135.552H69.0424C69.4699 135.552 69.8799 135.699 70.1822 135.96C70.4845 136.221 70.6544 136.576 70.6544 136.946C70.6544 137.315 70.4845 137.67 70.1822 137.931C69.8799 138.193 69.4699 138.339 69.0424 138.339H61.3388C60.9113 138.339 60.5013 138.193 60.199 137.931C59.8967 137.67 59.7268 137.315 59.7268 136.946Z" fill="#455A64"/>
<path d="M32.4674 133.55V152.426H49.4452V133.55H32.4674Z" fill="#263238"/>
</svg>
