<svg width="36" height="35" viewBox="0 0 36 35" fill="none" xmlns="http://www.w3.org/2000/svg">
<path d="M18 3.28125C15.1878 3.28125 12.4388 4.11517 10.1005 5.67754C7.76223 7.23992 5.93978 9.46058 4.86359 12.0587C3.78741 14.6569 3.50583 17.5158 4.05447 20.2739C4.6031 23.0321 5.9573 25.5656 7.94583 27.5542C9.93436 29.5427 12.4679 30.8969 15.2261 31.4455C17.9842 31.9942 20.8431 31.7126 23.4413 30.6364C26.0394 29.5602 28.2601 27.7378 29.8225 25.3995C31.3848 23.0613 32.2188 20.3122 32.2188 17.5C32.2148 13.7302 30.7155 10.1159 28.0498 7.45022C25.3841 4.78455 21.7698 3.28523 18 3.28125ZM25.6563 18.5938H18C17.7099 18.5938 17.4317 18.4785 17.2266 18.2734C17.0215 18.0683 16.9063 17.7901 16.9063 17.5V9.84375C16.9063 9.55367 17.0215 9.27547 17.2266 9.07035C17.4317 8.86523 17.7099 8.75 18 8.75C18.2901 8.75 18.5683 8.86523 18.7734 9.07035C18.9785 9.27547 19.0938 9.55367 19.0938 9.84375V16.4062H25.6563C25.9463 16.4062 26.2245 16.5215 26.4297 16.7266C26.6348 16.9317 26.75 17.2099 26.75 17.5C26.75 17.7901 26.6348 18.0683 26.4297 18.2734C26.2245 18.4785 25.9463 18.5938 25.6563 18.5938Z" fill="#EC4949"/>
</svg>
