<svg width="21" height="20" viewBox="0 0 21 20" fill="none" xmlns="http://www.w3.org/2000/svg">
<path fill-rule="evenodd" clip-rule="evenodd" d="M4 1C3.20435 1 2.44129 1.31607 1.87868 1.87868C1.31607 2.44129 1 3.20435 1 4V16C1 16.7956 1.31607 17.5587 1.87868 18.1213C2.44129 18.6839 3.20435 19 4 19H16C16.7956 19 17.5587 18.6839 18.1213 18.1213C18.6839 17.5587 19 16.7956 19 16V11C19 10.7348 18.8946 10.4804 18.7071 10.2929C18.5196 10.1054 18.2652 10 18 10C17.7348 10 17.4804 10.1054 17.2929 10.2929C17.1054 10.4804 17 10.7348 17 11V16C17 16.2652 16.8946 16.5196 16.7071 16.7071C16.5196 16.8946 16.2652 17 16 17H4C3.73478 17 3.48043 16.8946 3.29289 16.7071C3.10536 16.5196 3 16.2652 3 16V4C3 3.73478 3.10536 3.48043 3.29289 3.29289C3.48043 3.10536 3.73478 3 4 3H12C12.2652 3 12.5196 2.89464 12.7071 2.70711C12.8946 2.51957 13 2.26522 13 2C13 1.73478 12.8946 1.48043 12.7071 1.29289C12.5196 1.10536 12.2652 1 12 1H4ZM19.358 4.045C19.5884 3.91391 19.7573 3.6967 19.8276 3.44112C19.8979 3.18554 19.8639 2.9125 19.733 2.682C19.6 2.45333 19.3827 2.28595 19.1276 2.21583C18.8726 2.1457 18.6002 2.17844 18.369 2.307C18.016 2.507 17.675 2.731 17.339 2.957C16.4869 3.53011 15.6648 4.14659 14.876 4.804C13.234 6.17 11.262 8.094 9.637 10.522C9.1318 9.85674 8.54523 9.25741 7.891 8.738C7.464 8.405 6.989 8.078 6.476 7.892C6.22696 7.80063 5.95083 7.81194 5.71012 7.92343C5.46942 8.03492 5.28287 8.23746 5.1915 8.4865C5.10013 8.73554 5.11144 9.01067 5.22293 9.25138C5.33442 9.49208 5.53696 9.67863 5.786 9.77C5.811 9.78 6.156 9.92 6.662 10.315C7.24 10.765 8.038 11.554 8.808 12.872C8.89658 13.0237 9.02357 13.1495 9.1762 13.2365C9.32882 13.3236 9.50169 13.3689 9.67739 13.3678C9.85309 13.3668 10.0254 13.3195 10.177 13.2307C10.3286 13.1419 10.4542 13.0148 10.541 12.862C12.125 10.071 14.328 7.862 16.155 6.342C17.065 5.585 17.875 5.006 18.453 4.618C18.748 4.419 19.048 4.224 19.357 4.046L19.358 4.045Z" fill="#427CD4" stroke="#427CD4" stroke-width="2"/>
</svg>
