<svg width="23" height="23" viewBox="0 0 23 23" fill="none" xmlns="http://www.w3.org/2000/svg">
<path d="M22.2669 6.54062V18.0377C22.2597 18.1771 22.2196 18.3127 22.1497 18.4335C22.0799 18.5543 21.9825 18.6568 21.8653 18.7325L21.4887 18.9577C19.6094 20.0455 17.9553 21.0028 16.284 21.9669V9.53349L5.51905 3.31008C7.38205 2.24058 9.23835 1.16053 11.1033 0.0958266C11.2277 0.0331411 11.365 0.000488281 11.5043 0.000488281C11.6436 0.000488281 11.781 0.0331411 11.9054 0.0958266L22.265 6.0787V6.54062H22.2669ZM13.8901 10.9125C11.4329 9.49179 8.97514 8.07218 6.51668 6.6537C6.39206 6.59174 6.25479 6.5595 6.11562 6.5595C5.97645 6.5595 5.83917 6.59174 5.71455 6.6537C4.05344 7.61203 2.39265 8.57164 0.732178 9.53253L8.50714 14.0214V23C10.167 22.0426 11.823 21.0776 13.4876 20.1298C13.6041 20.0535 13.701 19.951 13.7708 19.8306C13.8405 19.7101 13.881 19.5749 13.8891 19.436L13.8901 10.9125ZM0.733136 18.5121L6.11226 21.6181V15.4004L0.733136 18.5121Z" fill="#BF8115"/>
</svg>
