<svg width="26" height="24" viewBox="0 0 26 24" fill="none" xmlns="http://www.w3.org/2000/svg">
<g clip-path="url(#clip0_563_809)">
<path d="M17.0625 21C17.96 21 18.6875 20.3284 18.6875 19.5C18.6875 18.6716 17.96 18 17.0625 18C16.165 18 15.4375 18.6716 15.4375 19.5C15.4375 20.3284 16.165 21 17.0625 21Z" fill="#427CD4"/>
<path d="M3.25 15V16.5H6.97613L1.625 21.4395L2.77387 22.5L8.125 17.5605V21H9.75V15H3.25Z" fill="#427CD4" stroke="#427CD4"/>
<path d="M17.0625 6C17.96 6 18.6875 5.32843 18.6875 4.5C18.6875 3.67157 17.96 3 17.0625 3C16.165 3 15.4375 3.67157 15.4375 4.5C15.4375 5.32843 16.165 6 17.0625 6Z" fill="#427CD4"/>
<path d="M3.25 13.5C4.14746 13.5 4.875 12.8284 4.875 12C4.875 11.1716 4.14746 10.5 3.25 10.5C2.35254 10.5 1.625 11.1716 1.625 12C1.625 12.8284 2.35254 13.5 3.25 13.5Z" fill="#427CD4"/>
<path d="M22.75 9C22.0314 9.00197 21.3339 9.22393 20.7666 9.6311C20.1994 10.0383 19.7945 10.6076 19.6154 11.25H16.1346C16.0196 10.827 15.8051 10.4326 15.5066 10.0946C15.208 9.75669 14.8326 9.48346 14.4069 9.29432C13.9812 9.10519 13.5156 9.00477 13.0432 9.00017C12.5708 8.99558 12.1031 9.08693 11.6732 9.26775L9.09188 6.29025C9.51664 5.7756 9.74773 5.14699 9.75 4.5C9.75 3.90666 9.55939 3.32664 9.20228 2.83329C8.84516 2.33994 8.33758 1.95543 7.74372 1.72836C7.14986 1.5013 6.4964 1.44189 5.86596 1.55765C5.23552 1.6734 4.65642 1.95912 4.2019 2.37868C3.74738 2.79824 3.43785 3.33279 3.31245 3.91473C3.18705 4.49667 3.25141 5.09987 3.49739 5.64805C3.74338 6.19623 4.15994 6.66477 4.6944 6.99441C5.22886 7.32405 5.85721 7.5 6.5 7.5C6.95804 7.49811 7.41047 7.40686 7.82763 7.23225L10.4081 10.2098C9.98336 10.7244 9.75227 11.353 9.75 12C9.74902 12.7292 10.0364 13.4337 10.5582 13.9813C11.08 14.5288 11.8003 14.8817 12.584 14.9738C13.3677 15.0658 14.1609 14.8907 14.8146 14.4813C15.4683 14.0718 15.9377 13.4562 16.1346 12.75H19.6154C19.7684 13.2919 20.0829 13.7834 20.5233 14.1686C20.9637 14.5538 21.5123 14.8173 22.1067 14.9291C22.7012 15.041 23.3177 14.9968 23.8863 14.8015C24.4549 14.6062 24.9528 14.2676 25.3234 13.8242C25.694 13.3808 25.9225 12.8504 25.983 12.2932C26.0434 11.7359 25.9334 11.1742 25.6654 10.6718C25.3974 10.1694 24.9822 9.74642 24.4668 9.4509C23.9515 9.15538 23.3567 8.99917 22.75 9ZM6.5 6C6.17861 6 5.86443 5.91203 5.5972 5.74721C5.32997 5.58238 5.12169 5.34812 4.9987 5.07403C4.8757 4.79994 4.84352 4.49834 4.90622 4.20737C4.96893 3.91639 5.12369 3.64912 5.35095 3.43934C5.57821 3.22956 5.86776 3.0867 6.18298 3.02882C6.4982 2.97095 6.82493 3.00065 7.12186 3.11418C7.41879 3.22771 7.67258 3.41997 7.85114 3.66665C8.0297 3.91332 8.125 4.20333 8.125 4.5C8.125 4.89783 7.9538 5.27936 7.64905 5.56066C7.3443 5.84197 6.93098 6 6.5 6ZM13 13.5C12.6786 13.5 12.3644 13.412 12.0972 13.2472C11.83 13.0824 11.6217 12.8481 11.4987 12.574C11.3757 12.2999 11.3435 11.9983 11.4062 11.7074C11.4689 11.4164 11.6237 11.1491 11.851 10.9393C12.0782 10.7296 12.3678 10.5867 12.683 10.5288C12.9982 10.4709 13.3249 10.5007 13.6219 10.6142C13.9188 10.7277 14.1726 10.92 14.3511 11.1666C14.5297 11.4133 14.625 11.7033 14.625 12C14.6244 12.3976 14.4529 12.7788 14.1483 13.06C13.8437 13.3412 13.4308 13.4994 13 13.5ZM22.75 13.5C22.4286 13.5 22.1144 13.412 21.8472 13.2472C21.58 13.0824 21.3717 12.8481 21.2487 12.574C21.1257 12.2999 21.0935 11.9983 21.1562 11.7074C21.2189 11.4164 21.3737 11.1491 21.601 10.9393C21.8282 10.7296 22.1178 10.5867 22.433 10.5288C22.7482 10.4709 23.0749 10.5007 23.3719 10.6142C23.6688 10.7277 23.9226 10.92 24.1011 11.1666C24.2797 11.4133 24.375 11.7033 24.375 12C24.375 12.3978 24.2038 12.7794 23.899 13.0607C23.5943 13.342 23.181 13.5 22.75 13.5Z" fill="#427CD4" stroke="#427CD4"/>
</g>
<defs>
<clipPath id="clip0_563_809">
<rect width="26" height="24" fill="white"/>
</clipPath>
</defs>
</svg>
