<svg width="25" height="25" viewBox="0 0 25 25" fill="none" xmlns="http://www.w3.org/2000/svg">
<path d="M3.93542 3.80745C3.74687 4.18245 3.65417 4.64704 3.46875 5.57412L2.84583 8.6887C2.75755 9.11337 2.75687 9.55158 2.84382 9.97651C2.93078 10.4014 3.10355 10.8042 3.35155 11.16C3.59955 11.5159 3.91757 11.8173 4.28613 12.046C4.6547 12.2747 5.06606 12.4257 5.49502 12.4899C5.92399 12.5541 6.36154 12.53 6.78089 12.4192C7.20024 12.3084 7.59256 12.1132 7.93384 11.8455C8.27512 11.5778 8.55818 11.2433 8.76568 10.8624C8.97319 10.4815 9.10077 10.0623 9.14062 9.63037L9.21354 8.91162C9.17407 9.36874 9.23038 9.82908 9.37888 10.2632C9.52739 10.6973 9.76482 11.0957 10.076 11.4329C10.3872 11.7701 10.7653 12.0386 11.1861 12.2214C11.607 12.4041 12.0613 12.4971 12.5201 12.4944C12.979 12.4916 13.4322 12.3931 13.8508 12.2053C14.2694 12.0175 14.6442 11.7444 14.9513 11.4035C15.2584 11.0626 15.491 10.6614 15.6343 10.2255C15.7776 9.78963 15.8283 9.32865 15.7833 8.87204L15.8594 9.63037C15.8992 10.0623 16.0268 10.4815 16.2343 10.8624C16.4418 11.2433 16.7249 11.5778 17.0662 11.8455C17.4074 12.1132 17.7998 12.3084 18.2191 12.4192C18.6385 12.53 19.076 12.5541 19.505 12.4899C19.9339 12.4257 20.3453 12.2747 20.7139 12.046C21.0824 11.8173 21.4004 11.5159 21.6485 11.16C21.8965 10.8042 22.0692 10.4014 22.1562 9.97651C22.2431 9.55158 22.2425 9.11337 22.1542 8.6887L21.5313 5.57412C21.3458 4.64704 21.2531 4.1835 21.0646 3.80745C20.8681 3.41583 20.5915 3.06989 20.2527 2.79209C19.9139 2.51429 19.5205 2.31085 19.0979 2.19495C18.6917 2.0835 18.2188 2.0835 17.2729 2.0835H7.72708C6.78125 2.0835 6.30833 2.0835 5.90208 2.19495C5.47955 2.31085 5.08611 2.51429 4.74729 2.79209C4.40848 3.06989 4.13187 3.41583 3.93542 3.80745ZM19.0302 14.0627C19.8441 14.0647 20.6447 13.8562 21.3542 13.4575V14.5835C21.3542 18.5116 21.3542 20.4762 20.1333 21.696C19.151 22.6793 17.6875 22.87 15.1042 22.9075V19.271C15.1042 18.297 15.1042 17.8106 14.8948 17.4481C14.7577 17.2106 14.5604 17.0133 14.3229 16.8762C13.9604 16.6668 13.474 16.6668 12.5 16.6668C11.526 16.6668 11.0396 16.6668 10.6771 16.8762C10.4396 17.0133 10.2423 17.2106 10.1052 17.4481C9.89583 17.8106 9.89583 18.297 9.89583 19.271V22.9075C7.3125 22.87 5.84896 22.6783 4.86667 21.696C3.64583 20.4762 3.64583 18.5116 3.64583 14.5835V13.4575C4.35564 13.8564 5.1566 14.0649 5.97083 14.0627C7.17462 14.0634 8.3336 13.6061 9.2125 12.7835C10.108 13.6088 11.2821 14.0657 12.5 14.0627C13.7179 14.0657 14.892 13.6088 15.7875 12.7835C16.6664 13.6061 17.8264 14.0634 19.0302 14.0627Z" fill="#498AEC"/>
</svg>
